<?xml version="1.0" encoding="UTF-8" standalone="no"?>
<!-- Created with Inkscape (http://www.inkscape.org/) -->

<svg
   xmlns:dc="http://purl.org/dc/elements/1.1/"
   xmlns:cc="http://creativecommons.org/ns#"
   xmlns:rdf="http://www.w3.org/1999/02/22-rdf-syntax-ns#"
   xmlns:svg="http://www.w3.org/2000/svg"
   xmlns="http://www.w3.org/2000/svg"
   xmlns:sodipodi="http://sodipodi.sourceforge.net/DTD/sodipodi-0.dtd"
   xmlns:inkscape="http://www.inkscape.org/namespaces/inkscape"
   width="210mm"
   height="297mm"
   viewBox="0 0 210 297"
   version="1.1"
   id="svg8"
   inkscape:version="0.92.1 r15371"
   sodipodi:docname="logo.svg">
  <defs
     id="defs2" />
  <sodipodi:namedview
     id="base"
     pagecolor="#ffffff"
     bordercolor="#666666"
     borderopacity="1.0"
     inkscape:pageopacity="0.0"
     inkscape:pageshadow="2"
     inkscape:zoom="0.7"
     inkscape:cx="49.142293"
     inkscape:cy="883.73057"
     inkscape:document-units="mm"
     inkscape:current-layer="g3707"
     showgrid="false"
     inkscape:window-width="1366"
     inkscape:window-height="706"
     inkscape:window-x="-8"
     inkscape:window-y="-8"
     inkscape:window-maximized="1" />
  <metadata
     id="metadata5">
    <rdf:RDF>
      <cc:Work
         rdf:about="">
        <dc:format>image/svg+xml</dc:format>
        <dc:type
           rdf:resource="http://purl.org/dc/dcmitype/StillImage" />
        <dc:title></dc:title>
      </cc:Work>
    </rdf:RDF>
  </metadata>
  <g
     inkscape:label="Layer 1"
     inkscape:groupmode="layer"
     id="layer1">
    <g
       id="g3707"
       transform="translate(0.37797579,-13.985119)">
      <path
         style="fill:#eba1a1;stroke-width:0.18921149"
         d="m 56.522542,125.82207 c -0.08561,-0.20184 -1.183056,-4.02368 -2.438756,-8.49297 -1.255701,-4.46929 -2.324912,-8.12606 -2.376026,-8.12614 -0.05112,-8e-5 -1.196892,3.72324 -2.546172,8.27406 -1.374474,4.63578 -2.559644,8.32437 -2.695218,8.38827 -0.133087,0.0627 -2.044971,0.11406 -4.248628,0.11406 h -4.006651 l -0.237006,-0.69678 c -0.130355,-0.38322 -2.662171,-9.45566 -5.626258,-20.16096 -4.156831,-15.013104 -5.345148,-19.529467 -5.196395,-19.749636 0.270277,-0.400034 11.554514,-0.422022 11.963752,-0.02331 0.147981,0.144174 0.940829,2.597743 1.761884,5.452377 0.821056,2.854633 1.540518,5.190184 1.598806,5.190113 0.05829,-7.2e-5 0.756988,-2.274096 1.552666,-5.053389 0.795678,-2.779292 1.549066,-5.232805 1.674195,-5.452246 0.216009,-0.378827 0.519715,-0.398988 6.010085,-0.398988 4.736116,0 5.825947,0.05327 6.022218,0.294363 0.1318,0.1619 0.875274,2.591877 1.652164,5.39995 0.776889,2.808072 1.469514,5.180896 1.539166,5.272941 0.06965,0.09204 0.817188,-2.267157 1.661192,-5.24267 l 1.534554,-5.410024 6.092924,-0.05508 c 4.860538,-0.04394 6.110076,-1.8e-4 6.17772,0.216355 0.09277,0.29698 -10.921684,39.914104 -11.219631,40.355094 -0.141013,0.20872 -1.145678,0.2716 -4.339211,0.2716 -3.784707,0 -4.169607,-0.0328 -4.311374,-0.36699 z m 58.535638,-0.0386 c -0.2145,-0.49233 -0.25073,-39.986846 -0.0368,-40.149234 0.0769,-0.05841 5.39698,-0.121259 11.82231,-0.139657 10.19944,-0.02921 11.81444,0.009 12.72252,0.300722 5.1091,1.641474 9.12716,7.444063 9.16465,13.234918 0.0209,3.236201 -0.90819,5.770461 -3.11991,8.509671 -0.79811,0.98845 -1.72,2.0466 -2.04863,2.35143 -0.71854,0.6665 -0.55326,0.90312 0.76677,1.09768 1.1892,0.17528 18.63873,0.0311 18.79029,-0.15521 0.16657,-0.20482 -0.36377,-1.02693 -2.79176,-4.32769 -2.98542,-4.05856 -3.85553,-6.32459 -3.8362,-9.99051 0.0176,-3.330545 1.08749,-6.318952 3.0091,-8.404732 1.02135,-1.108606 3.21562,-2.467649 4.51383,-2.795689 0.59935,-0.151446 4.70355,-0.228599 12.1605,-0.228599 h 11.25581 l 0.10197,0.499035 c 0.0561,0.274468 0.0767,3.392141 0.0459,6.92816 -0.0473,5.426814 -0.096,6.462365 -0.31211,6.642316 -0.17031,0.141787 -2.77873,0.166142 -7.78811,0.07272 -5.02145,-0.09365 -7.56763,-0.0697 -7.63885,0.07185 -0.12837,0.255142 0.6882,1.629359 3.45411,5.812919 1.33436,2.01828 2.33025,3.75913 2.77888,4.85754 0.61985,1.5177 0.70864,1.9222 0.78253,3.56502 0.15452,3.43535 -0.82729,6.39709 -3.01924,9.10797 -1.35543,1.67632 -2.66426,2.61621 -4.36085,3.1316 -1.18056,0.35862 -29.90021,0.55309 -31.7068,0.2147 -0.68311,-0.12796 -1.62614,-0.4633 -2.09561,-0.74522 -1.3743,-0.82524 -3.55696,-2.97777 -6.57074,-6.48 -1.5482,-1.79912 -2.8734,-3.27113 -2.9449,-3.27113 -0.0715,0 -0.13,2.25712 -0.13,5.01581 0,2.7587 -0.0466,5.16509 -0.10363,5.34753 -0.0919,0.29417 -0.81566,0.33171 -6.39596,0.33171 -6.04633,0 -6.29925,-0.0159 -6.46907,-0.40563 z m 19.69298,-24.33471 c 1.16019,-0.23339 1.59224,-0.62644 1.73805,-1.581177 0.11826,-0.774311 -0.25076,-1.839408 -0.73101,-2.109906 -0.16779,-0.09451 -1.97599,-0.208288 -4.01822,-0.252846 l -3.71314,-0.08101 v 1.995356 c 0,1.902523 0.0179,1.999583 0.38412,2.086233 0.76707,0.18148 5.36044,0.14044 6.3402,-0.0567 z M 98.898455,125.8189 c -0.105308,-0.0847 -0.489426,-1.28648 -0.853596,-2.67055 l -0.662126,-2.51648 -5.804455,-0.13938 c -3.19245,-0.0767 -5.923551,-0.0999 -6.069113,-0.0516 -0.171497,0.0569 -0.462457,0.91797 -0.826555,2.44615 -0.309043,1.29711 -0.641088,2.47633 -0.737879,2.6205 -0.274875,0.40943 -11.794718,0.37652 -12.07241,-0.0345 -0.158878,-0.23516 0.956468,-4.41803 5.38205,-20.18428 3.070354,-10.938207 5.657307,-20.00561 5.748787,-20.149784 0.247903,-0.390702 16.391653,-0.380695 16.655839,0.01032 0.187585,0.277652 11.466633,39.982994 11.466633,40.365704 0,0.11539 -0.12152,0.26707 -0.27004,0.33708 -0.38778,0.18279 -11.727845,0.1513 -11.957135,-0.0332 z m -5.355261,-18.34613 c 0.0029,-0.45444 -1.919189,-7.28731 -2.049869,-7.28731 -0.128675,0 -2.219757,6.88757 -2.219757,7.3114 0,0.16489 0.655801,0.23804 2.133991,0.23804 1.592503,0 2.134407,-0.0665 2.135635,-0.26213 z M 16.699462,80.535414 c -0.01013,-0.09201 -0.02934,-1.818728 -0.04268,-3.837156 l -0.02426,-3.669868 -0.768236,-0.104854 -0.768237,-0.104853 -0.05258,-1.0124 c -0.08114,-1.562388 -0.0031,-1.608935 2.698724,-1.608935 2.701787,0 2.77986,0.04655 2.698723,1.608935 l -0.05258,1.0124 -0.721743,0.06426 -0.721743,0.06425 -0.04649,3.815322 -0.04649,3.815319 -1.066996,0.06243 c -0.586847,0.03434 -1.075286,-0.01286 -1.08542,-0.104854 z m 13.837558,0 c -0.08935,-1.637722 0.0297,-10.027809 0.144285,-10.16856 0.08664,-0.106426 0.57182,-0.164511 1.078179,-0.129077 l 0.920653,0.06442 0.04933,1.834935 0.04933,1.834934 h 0.754942 0.754943 l 0.04933,-1.834934 0.04933,-1.834935 0.920654,-0.06442 c 0.506358,-0.03543 0.992416,0.02373 1.080127,0.13147 0.08991,0.110448 0.159475,2.379616 0.159475,5.20224 v 5.006347 H 35.46747 34.387342 l -0.08536,-1.887361 -0.08536,-1.887361 h -0.682877 -0.682877 l -0.08536,1.887361 -0.08536,1.887361 -1.066995,0.06243 c -0.586848,0.03434 -1.071103,-0.01286 -1.076122,-0.104854 z m 16.345871,0.01313 c -0.220105,-0.270375 -0.138334,-9.823431 0.08645,-10.099546 0.137001,-0.168287 0.896411,-0.251648 2.292516,-0.251648 2.348246,0 2.624199,0.14311 2.624199,1.360922 0,1.288851 -0.08224,1.365266 -1.469379,1.365266 -1.232458,0 -1.262129,0.01233 -1.262129,0.524267 0,0.487787 0.05812,0.524267 0.835331,0.524267 0.923989,0 1.04258,0.15857 1.04258,1.394032 0,1.203638 -0.244738,1.541863 -1.115681,1.541863 -0.699233,0 -0.76223,0.04333 -0.76223,0.524267 0,0.512911 0.02791,0.524267 1.288541,0.524267 h 1.288539 l -0.05083,1.310667 -0.05083,1.310668 -2.314334,0.05808 c -1.272884,0.03195 -2.367621,-0.0074 -2.432749,-0.08738 z m 27.273423,-0.132321 c -0.04578,-0.14656 -0.06258,-2.482169 -0.03732,-5.190243 l 0.04592,-4.923777 h 1.024315 1.024316 l 0.08536,3.774723 0.08536,3.774722 1.280394,0.104853 1.280395,0.104853 0.05257,1.0124 c 0.08052,1.550519 -0.01222,1.608935 -2.554265,1.608935 -1.624694,0 -2.225679,-0.07002 -2.287049,-0.266472 z m 14.365745,0.09001 c -0.05372,-0.106764 0.353587,-1.361113 0.905121,-2.787442 0.551532,-1.426329 1.428669,-3.702151 1.949194,-5.057381 0.520523,-1.35523 1.048433,-2.464055 1.173131,-2.464055 0.321953,0 4.163486,10.02882 3.944549,10.297757 -0.09322,0.114504 -0.699135,0.17996 -1.346487,0.145459 -1.160112,-0.06183 -1.178262,-0.07176 -1.264623,-0.69185 -0.08686,-0.623653 -0.09831,-0.629655 -1.3174,-0.690567 l -1.229778,-0.06145 -0.145128,0.690567 -0.145128,0.690566 -1.212892,0.06125 c -0.667093,0.03369 -1.256842,-0.0261 -1.310559,-0.132861 z m 4.336614,-4.000529 c 0,-0.342937 -0.203658,-0.855979 -0.339793,-0.855979 -0.165405,0 -0.340145,0.772537 -0.210704,0.931539 0.153615,0.188694 0.550497,0.134221 0.550497,-0.07556 z m 13.600637,4.037179 c -0.18232,-0.223954 -0.13111,-2.967915 0.0581,-3.111535 0.0945,-0.07177 0.39448,0.06421 0.66655,0.302186 0.68006,0.594833 1.33875,0.566086 1.57421,-0.0687 0.23571,-0.63547 0.0892,-0.944332 -0.87423,-1.842582 -1.18389,-1.103848 -1.58453,-1.957955 -1.49181,-3.180327 0.13569,-1.788841 1.25897,-2.697498 3.02634,-2.448119 l 0.76824,0.108399 V 71.6653 c 0,1.463994 0.0319,1.427878 -0.99862,1.131552 -0.71777,-0.206404 -0.53848,0.338213 0.39915,1.212422 0.42146,0.392953 0.94002,1.031132 1.15236,1.418176 0.82605,1.505709 0.26476,4.151477 -1.04235,4.913392 -0.58879,0.343208 -3.00048,0.493696 -3.23791,0.202044 z m 15.92002,-0.0075 c -0.008,-0.09201 -0.002,-1.836869 0.0124,-3.877472 l 0.0262,-3.710182 -0.8233,-0.06454 -0.82329,-0.06454 -0.0536,-1.041587 c -0.0764,-1.486152 0.0847,-1.579748 2.71836,-1.579748 1.19502,0 2.29428,0.05728 2.4428,0.12729 0.20397,0.09615 0.27005,0.429653 0.27005,1.363094 v 1.235804 h -0.76439 -0.76438 l -0.0465,3.827149 -0.0465,3.827149 -1.06699,0.06243 c -0.58685,0.03434 -1.07319,-0.01286 -1.08077,-0.104854 z m 26.03289,-0.141505 c -0.0496,-0.158828 -0.0664,-0.748629 -0.0373,-1.310668 0.0506,-0.976671 0.0755,-1.022654 0.56505,-1.039187 0.28168,-0.0095 0.60818,-0.03311 0.72555,-0.05243 0.16171,-0.02662 0.2134,-0.944125 0.2134,-3.787413 0,-4.188334 -0.0559,-4.009554 1.25168,-4.003655 1.20478,0.0054 1.17831,-0.09771 1.10886,4.32057 -0.0693,4.405413 -0.1914,4.982876 -1.21647,5.750634 -0.66747,0.499926 -2.46644,0.584092 -2.61075,0.122146 z m 14.09403,0.02665 c -0.003,-0.144174 -6.8e-4,-2.429025 0.006,-5.077448 0.009,-3.537972 0.0668,-4.85829 0.21927,-4.977326 0.11416,-0.0891 1.09556,-0.163456 2.18088,-0.165221 2.41523,-0.0039 2.59441,0.108217 2.51893,1.576538 l -0.0535,1.041584 -1.2804,0.104853 c -1.15727,0.09477 -1.28552,0.149129 -1.33373,0.565282 -0.0484,0.418124 0.03,0.466291 0.8536,0.524267 l 0.90693,0.06384 v 1.363094 1.363094 l -0.90693,0.06384 c -0.82361,0.05797 -0.90203,0.106143 -0.8536,0.524267 0.0482,0.416152 0.17646,0.47051 1.33373,0.565281 l 1.2804,0.104853 0.0526,1.0124 c 0.0809,1.55724 -0.004,1.608935 -2.63427,1.608935 -1.7101,0 -2.28528,-0.06585 -2.28968,-0.262133 z m 14.98649,0.144922 c -0.0704,-0.08932 -0.12804,-2.352763 -0.12804,-5.029878 0,-3.642227 0.0537,-4.920321 0.2134,-5.077396 0.11737,-0.115452 0.73029,-0.27585 1.36205,-0.35644 2.93909,-0.374925 5.11868,1.90665 5.10529,5.344167 -0.006,1.436821 -0.28964,2.362628 -1.05216,3.42943 -0.90782,1.270068 -1.70383,1.652141 -3.66531,1.759272 -0.93895,0.05128 -1.76481,0.02015 -1.83523,-0.06915 z m 2.94578,-2.818686 c 0.37032,0 1.1917,-1.133754 1.29064,-1.78148 0.21775,-1.425824 -0.61664,-3.041776 -1.57062,-3.041776 -0.40232,0 -0.40377,0.0091 -0.40377,2.538918 0,2.229005 0.033,2.523381 0.27004,2.411628 0.14853,-0.07001 0.33468,-0.12729 0.41371,-0.12729 z m 13.60699,2.804961 c -0.22189,-0.272558 -0.14264,-9.824585 0.0838,-10.102757 0.22976,-0.282234 1.64094,-0.336808 1.97497,-0.07638 0.16722,0.130372 0.20612,1.312292 0.17072,5.18703 l -0.0458,5.018187 -1.03132,0.0613 c -0.56723,0.03371 -1.08579,-0.0056 -1.15235,-0.08738 z M 125.90253,64.908017 c -0.14617,-0.25634 -0.26576,-0.552578 -0.26576,-0.658302 0,-0.105725 -0.23377,-1.122776 -0.51949,-2.260114 l -0.51949,-2.067885 h -6.03036 -6.03036 l -0.535,2.073087 c -0.29425,1.140199 -0.535,2.163623 -0.535,2.274273 0,0.110651 -0.14049,0.357363 -0.3122,0.548247 -0.27746,0.308445 -0.95025,0.347062 -6.04657,0.347062 -3.1539,0 -5.855889,-0.05728 -6.004412,-0.12729 -0.148524,-0.07001 -0.270042,-0.302359 -0.270042,-0.516331 0,-0.457983 11.044034,-39.848918 11.239894,-40.089504 0.0733,-0.09005 3.89137,-0.139235 8.48458,-0.109291 l 8.35128,0.05445 5.68993,20.211597 c 3.12946,11.116376 5.64954,20.340854 5.60019,20.498838 -0.0736,0.235608 -1.16302,0.287242 -6.06058,0.287242 h -5.97085 z m -5.0459,-17.866211 c 0,-0.593934 -2.09713,-7.904906 -2.21964,-7.73804 -0.21141,0.287965 -2.34801,7.807249 -2.25195,7.925241 0.0494,0.06067 1.0757,0.110301 2.28069,0.110301 1.77782,0 2.1909,-0.05609 2.1909,-0.297502 z M 26.487764,64.907371 C 26.323257,64.663884 26.284004,62.94212 26.318547,57.4852 l 0.04498,-7.105143 13.131176,-0.104854 c 9.174444,-0.07326 13.149678,-0.17305 13.192573,-0.331179 0.07351,-0.270979 -0.371005,-0.970928 -2.491127,-3.92263 -3.037934,-4.229512 -3.789445,-5.736389 -4.132157,-8.285499 -0.754523,-5.612198 2.64451,-11.869725 7.2475,-13.342453 0.758808,-0.242782 5.129304,-0.303694 25.51686,-0.355634 13.530673,-0.03447 24.661918,0.01174 24.736108,0.102721 0.21747,0.266655 0.26523,12.637763 0.0507,13.130176 -0.1798,0.41269 -0.34348,0.422091 -7.348096,0.422091 h -7.164203 v 13.484147 c 0,10.20806 -0.04977,13.545286 -0.204863,13.735794 -0.267903,0.329084 -11.600889,0.361463 -12.098146,0.03456 -0.321232,-0.211179 -0.330215,-0.58487 -0.330215,-13.735795 v -13.51871 h -7.586931 c -5.379232,0 -7.621042,0.0678 -7.704157,0.232989 -0.142641,0.283507 0.945045,2.225238 3.52923,6.300355 3.22119,5.079641 3.701024,6.405991 3.516024,9.718932 -0.120705,2.161557 -0.636168,3.958765 -1.691133,5.89628 -1.45692,2.675735 -3.65239,4.454914 -6.06474,4.914789 -0.70967,0.135288 -7.447325,0.268133 -17.460769,0.344275 -14.423769,0.109677 -16.329905,0.0874 -16.519385,-0.193045 z M 141.87514,64.87949 c -0.14056,-0.20804 -0.18074,-5.709806 -0.14894,-20.393985 l 0.0435,-20.10909 12.20642,0.0053 c 13.6301,0.0059 13.17923,-0.03717 15.67342,1.498353 1.45213,0.893995 3.3077,2.911902 4.20556,4.573491 3.16041,5.848712 1.70945,14.216216 -3.11402,17.958197 -1.1106,0.861597 -1.11972,0.876253 -0.76475,1.229332 0.44533,0.442962 3.31842,0.62363 10.44574,0.656865 2.68456,0.01252 5.33679,0.08329 5.89381,0.15728 0.91347,0.12133 1.02466,0.189415 1.13392,0.69431 0.0666,0.307883 0.14863,3.496219 0.18226,7.085191 0.0527,5.624751 0.0258,6.554167 -0.19496,6.733798 -0.32099,0.261221 -16.74836,0.222306 -19.85912,-0.04704 -1.20432,-0.104276 -2.48484,-0.314516 -2.84561,-0.467195 -1.2268,-0.519192 -3.94333,-3.184186 -7.36616,-7.226403 -1.18706,-1.401867 -2.20498,-2.54885 -2.26203,-2.54885 -0.0571,0 -0.10374,2.24596 -0.10374,4.991021 0,3.602297 -0.057,5.061041 -0.20486,5.24267 -0.31746,0.389952 -12.65601,0.3582 -12.92048,-0.03325 z m 20.90082,-24.975241 c 0.32093,-0.394213 0.41904,-0.736008 0.41904,-1.459778 0,-1.840793 -0.68563,-2.114769 -5.29229,-2.114769 h -2.98759 l -0.05,1.764978 c -0.0275,0.970739 -0.0107,1.890828 0.0373,2.044642 0.0691,0.221123 0.85843,0.279663 3.77095,0.279663 3.68333,0 3.6836,-3.4e-5 4.10261,-0.514736 z"
         id="path3721"
         inkscape:connector-curvature="0" />
      <path
         style="fill:#9f9f9f;stroke-width:0.18921149"
         d="m 56.720806,125.72091 c -0.07699,-0.1462 -1.187328,-3.99336 -2.467425,-8.54924 -1.377628,-4.90298 -2.413682,-8.28342 -2.538749,-8.28342 -0.12273,0 -1.202243,3.34015 -2.575473,7.96886 -1.300298,4.38287 -2.441719,8.18118 -2.53649,8.4407 -0.171583,0.46984 -0.18923,0.47184 -4.166972,0.47184 -2.994197,0 -4.035849,-0.0657 -4.159127,-0.26214 -0.280543,-0.44713 -10.99524,-39.397206 -10.938081,-39.762117 0.04853,-0.309802 0.628793,-0.349833 5.790652,-0.399485 4.618901,-0.04443 5.773585,-6.29e-4 5.925924,0.224862 0.104064,0.154023 0.847082,2.576499 1.651151,5.38328 1.669617,5.828165 1.661002,5.803648 1.903468,5.417471 0.0951,-0.151463 0.846197,-2.651778 1.669112,-5.556257 0.882936,-3.116329 1.59975,-5.329679 1.748826,-5.39995 0.138941,-0.06549 2.728423,-0.119077 5.754405,-0.119077 4.144617,0 5.567921,0.06466 5.769899,0.262133 0.147464,0.144173 0.941851,2.69528 1.765305,5.669125 0.881572,3.183727 1.574458,5.37536 1.685105,5.330067 0.103353,-0.04231 0.879329,-2.522638 1.724389,-5.511845 l 1.536473,-5.43492 5.878999,-0.05523 c 3.23345,-0.03037 5.936827,0.01682 6.007505,0.104854 0.07068,0.08804 -2.390037,9.172229 -5.468257,20.187079 l -5.596765,20.027 -4.11195,0.0561 c -3.173241,0.0433 -4.143904,-0.005 -4.251924,-0.20971 z m 58.610304,0.0942 c -0.0455,-0.0904 -0.10761,-9.12609 -0.13812,-20.07942 l -0.0555,-19.915146 11.68498,-0.05389 c 11.34226,-0.05231 11.72258,-0.04122 12.96697,0.378135 4.96914,1.674597 8.71431,7.259722 8.72164,13.006505 0.005,3.698726 -1.63273,7.295836 -4.54818,9.991306 -1.2868,1.18971 -1.29003,1.19516 -0.92398,1.55926 0.52818,0.52537 1.10994,0.57248 8.12034,0.6576 6.64939,0.0807 12.0937,-0.0599 12.30315,-0.31779 0.15958,-0.19649 -0.70088,-1.54814 -2.88197,-4.52713 -0.95635,-1.30621 -2.02892,-2.91073 -2.38349,-3.5656 -1.77351,-3.275602 -1.98559,-8.089645 -0.51371,-11.661042 0.63127,-1.531717 2.62015,-3.868625 3.98428,-4.681473 2.18651,-1.302879 2.19482,-1.30363 14.45943,-1.307044 l 11.13943,-0.0031 v 6.81547 6.815471 h -7.84302 c -4.44163,0 -7.88403,0.08154 -7.93761,0.188027 -0.1165,0.231558 0.88967,1.927981 3.4955,5.893461 2.46097,3.74506 2.98284,4.74402 3.43854,6.58199 0.43805,1.76683 0.35564,4.1251 -0.21596,6.18036 -0.46837,1.68406 -1.80947,4.16185 -2.85321,5.27148 -1.07857,1.14666 -2.94753,2.26144 -4.30257,2.56636 -1.66558,0.3748 -30.79038,0.36909 -32.11802,-0.006 -1.67223,-0.47282 -4.18325,-2.80483 -8.37759,-7.78038 -1.2739,-1.51118 -2.40173,-2.74759 -2.50627,-2.74759 -0.13445,0 -0.19009,1.49885 -0.19009,5.12066 0,2.81637 -0.0466,5.26994 -0.10363,5.45238 -0.0918,0.29394 -0.80025,0.33171 -6.22117,0.33171 -3.36466,0 -6.15475,-0.0739 -6.20021,-0.16428 z m 20.48209,-24.42412 c 1.02616,-0.6707 1.18639,-2.515394 0.30672,-3.531195 -0.43211,-0.498982 -0.48718,-0.506259 -4.35072,-0.57497 l -3.91308,-0.06959 v 2.201609 c 0,1.558666 0.0623,2.236006 0.2134,2.319386 0.11737,0.0648 1.78828,0.0917 3.71314,0.0597 2.86351,-0.0475 3.59624,-0.12112 4.03054,-0.40498 z m -36.974328,23.90686 c -0.0871,-0.25952 -0.412666,-1.46271 -0.723469,-2.67377 l -0.565096,-2.20192 -3.071374,-0.1311 c -5.599149,-0.23901 -9.073002,-0.2095 -9.26218,0.0787 -0.09464,0.14417 -0.452399,1.37095 -0.795014,2.72618 L 83.798805,125.56 h -5.777677 c -4.418049,0 -5.817511,-0.0617 -5.946952,-0.26213 -0.118807,-0.18399 1.483552,-6.13908 5.37464,-19.97458 3.049151,-10.841836 5.622708,-19.831301 5.719013,-19.976584 0.137268,-0.207081 1.927939,-0.252386 8.288467,-0.209707 l 8.113371,0.05444 5.671473,20.027001 c 3.99963,14.1234 5.62122,20.10427 5.501,20.28913 -0.13035,0.20044 -1.53265,0.26214 -5.95768,0.26214 h -5.787215 z m -5.060673,-17.52433 c 0.07836,-0.15575 -2.028181,-7.971269 -2.20809,-8.192267 -0.04245,-0.05215 -0.115327,-0.04797 -0.161939,0.0093 -0.190555,0.234075 -2.447554,8.031327 -2.3696,8.186267 0.111304,0.22122 4.628248,0.21809 4.739629,-0.003 z M 16.791654,80.44994 c -0.06441,-0.128011 -0.102865,-1.87382 -0.08547,-3.879576 l 0.03164,-3.646828 h -0.759941 c -0.832683,0 -0.969062,-0.187736 -0.964576,-1.327819 0.0047,-1.188585 0.04682,-1.205611 2.827254,-1.142051 l 2.547788,0.05824 v 1.153388 1.153387 l -0.725557,0.06449 -0.725557,0.06449 v 3.740227 c 0,3.217145 -0.03777,3.758029 -0.270041,3.867517 -0.454657,0.214312 -1.751339,0.141404 -1.875542,-0.105457 z m 13.868306,0.09294 c -0.0626,-0.07689 -0.113814,-2.388908 -0.113814,-5.137816 v -4.998011 h 1.109675 1.109676 v 1.782507 1.782508 h 0.768236 0.768237 v -1.760071 c 0,-1.949952 0.039,-2.01722 1.166318,-2.01144 1.094375,0.0056 1.063892,-0.155571 1.013514,5.359088 l -0.04584,5.018187 -0.666604,0.06702 c -0.366631,0.03686 -0.846779,0.01147 -1.066995,-0.05642 -0.382862,-0.118035 -0.400391,-0.205898 -0.400391,-2.006805 V 76.69826 h -0.768237 -0.768236 v 1.864925 c 0,1.507114 -0.05181,1.889347 -0.270042,1.992214 -0.363474,0.171331 -1.693211,0.162265 -1.835495,-0.01252 z m 16.35818,-0.0747 c -0.07942,-0.157856 -0.133253,-6.419468 -0.08519,-9.909767 0.0012,-0.08976 1.058572,-0.136943 2.349636,-0.104853 l 2.34739,0.05834 0.0512,1.205814 0.0512,1.205814 h -1.300254 -1.300253 l 0.05402,0.576694 c 0.05001,0.533855 0.111087,0.576694 0.822256,0.576694 h 0.768236 l 0.05083,1.310667 c 0.03709,0.956424 -0.009,1.317927 -0.170719,1.337531 -0.121851,0.01478 -0.490429,0.03837 -0.819063,0.05243 -0.516225,0.02209 -0.604767,0.102738 -0.650794,0.592808 -0.05316,0.566013 -0.05057,0.567376 1.195035,0.62912 l 1.248311,0.06188 0.05252,1.133539 c 0.03544,0.764853 -0.02009,1.190107 -0.17072,1.307457 -0.326954,0.254716 -4.363732,0.224025 -4.493636,-0.03416 z m 27.271593,0.03919 c -0.167124,-0.130301 -0.206134,-1.290439 -0.17072,-5.07725 l 0.0459,-4.90836 0.443598,-0.19151 c 0.243979,-0.105332 0.724127,-0.126864 1.066996,-0.04785 l 0.623396,0.14366 v 3.765218 3.76522 h 1.262129 c 0.993411,0 1.284193,0.07063 1.365754,0.331712 0.176333,0.564455 0.11427,1.878105 -0.101238,2.142828 -0.234819,0.288446 -4.178633,0.354818 -4.535817,0.07634 z M 88.667978,80.4179 c -0.124221,-0.39764 3.585479,-10.115702 3.861492,-10.115702 0.137043,0 1.031554,2.070905 2.16629,5.015226 1.461642,3.792554 1.87911,5.057111 1.712398,5.187033 -0.339837,0.264836 -2.09002,0.209457 -2.320307,-0.07342 -0.112675,-0.138406 -0.204863,-0.458599 -0.204863,-0.711537 0,-0.56901 -0.291324,-0.714469 -1.430933,-0.714469 -0.966182,0 -1.300575,0.247647 -1.300575,0.963185 0,0.573215 -0.290711,0.714469 -1.470434,0.714469 -0.591762,0 -0.960454,-0.09636 -1.013068,-0.264785 z m 4.188081,-4.086632 c -0.0014,-0.201842 -0.07001,-0.497695 -0.15237,-0.657451 -0.120115,-0.232976 -0.187175,-0.204573 -0.338824,0.143494 -0.275901,0.633258 -0.23306,0.880944 0.152369,0.880944 0.212363,0 0.34045,-0.138733 0.338825,-0.366987 z m 13.661021,4.058894 c -0.0944,-0.115926 -0.17159,-0.76107 -0.17159,-1.433654 0,-1.375333 0.23854,-1.678629 0.88367,-1.123569 0.45868,0.394643 1.18467,0.434888 1.47226,0.08162 0.44984,-0.552569 0.22377,-1.185909 -0.73331,-2.054412 -1.11204,-1.00913 -1.4518,-1.589615 -1.57138,-2.684783 -0.11179,-1.023755 0.28223,-2.011485 1.02405,-2.56709 0.62526,-0.468309 2.31216,-0.569837 2.64639,-0.159277 0.11268,0.138407 0.20487,0.757581 0.20487,1.375943 v 1.124297 l -0.74806,-0.137796 c -1.09866,-0.202382 -1.10713,0.174274 -0.026,1.155375 1.21035,1.098339 1.69564,2.207606 1.58493,3.622871 -0.0898,1.148292 -0.47893,1.916938 -1.33091,2.629098 -0.48684,0.406943 -0.76294,0.472369 -1.81867,0.430967 -0.68458,-0.02684 -1.3219,-0.14366 -1.41628,-0.259586 z m 15.99728,0.161867 c -0.0667,-0.08192 -0.12126,-1.826425 -0.12126,-3.876667 V 72.94765 l -0.72555,-0.06449 -0.72556,-0.06449 -0.0513,-1.211334 -0.0513,-1.211333 2.61212,0.05795 2.61213,0.05795 v 1.153388 1.153387 l -0.72175,0.06426 -0.72174,0.06425 -0.0465,3.815322 -0.0465,3.815319 -0.94573,0.06158 c -0.52015,0.03387 -1.0003,-0.0055 -1.067,-0.08738 z m 25.89786,-0.158124 c -0.0496,-0.158827 -0.0664,-0.748628 -0.0373,-1.310667 l 0.0529,-1.021889 0.64155,0.06171 c 0.56576,0.05442 0.66303,-0.0075 0.82341,-0.524267 0.10819,-0.348577 0.16381,-1.902856 0.13729,-3.836433 l -0.0446,-3.250455 h 1.08447 1.08448 l -0.0376,3.984429 c -0.0424,4.490468 -0.17282,5.110609 -1.21951,5.800148 -0.7146,0.470771 -2.3484,0.534821 -2.48504,0.09742 z m 14.21372,0.148974 c -0.0626,-0.07689 -0.11381,-2.388908 -0.11381,-5.137816 v -4.998011 h 2.38681 c 2.36627,0 2.38769,0.0043 2.48801,0.49525 0.0557,0.272386 0.0763,0.815002 0.0459,1.205814 l -0.0553,0.710564 -1.33371,0.06148 -1.3337,0.06148 0.0533,0.567636 c 0.048,0.511527 0.12081,0.567639 0.73618,0.567639 0.95766,0 1.10968,0.186739 1.10968,1.363094 0,1.172951 -0.14752,1.353638 -1.10968,1.359168 -0.61711,0.0035 -0.68808,0.05946 -0.73689,0.580619 l -0.054,0.576694 h 1.27347 c 1.39959,0 1.48071,0.0748 1.48071,1.365267 0,1.218386 -0.27544,1.360921 -2.62988,1.360921 -1.15134,0 -2.14456,-0.06291 -2.20716,-0.139805 z m 15.0802,-0.102029 c -0.21659,-0.238889 -0.24814,-1.03247 -0.20454,-5.147437 0.0593,-5.599163 -0.13309,-5.100147 1.97813,-5.13034 1.07215,-0.01533 1.45169,0.0766 2.2183,0.537331 3.07312,1.846903 3.10252,7.520161 0.0484,9.336287 -0.9443,0.561528 -3.65201,0.832385 -4.04028,0.404159 z m 2.98243,-2.809961 c 1.22474,-0.713901 1.47742,-2.8908 0.47805,-4.118403 -0.28351,-0.348258 -0.70413,-0.62268 -0.9943,-0.648702 l -0.50291,-0.0451 -0.0488,2.293297 c -0.0653,3.068245 -0.0275,3.157414 1.06793,2.518912 z m 13.48957,2.837292 c -0.0796,-0.158118 -0.13289,-6.363776 -0.0852,-9.913856 0.002,-0.09201 0.48241,-0.139191 1.06925,-0.104854 l 1.067,0.06243 0.0459,4.796944 c 0.0322,3.362175 -0.0123,4.88322 -0.14895,5.08539 -0.22843,0.338091 -1.7854,0.397191 -1.94803,0.07394 z M 126.08851,64.692545 c -0.13146,-0.259512 -0.45313,-1.368337 -0.71483,-2.464055 -0.2617,-1.095718 -0.55924,-2.099748 -0.6612,-2.231179 -0.19921,-0.256784 -11.87055,-0.552932 -12.18734,-0.30924 -0.0921,0.07083 -0.44891,1.237616 -0.79295,2.592846 l -0.62553,2.464055 h -6.05105 c -4.60152,0 -6.051044,-0.06044 -6.051044,-0.252322 0,-0.292067 10.885464,-39.093551 11.121934,-39.644394 0.1467,-0.341711 0.72083,-0.366987 8.33599,-0.366987 5.27133,0 8.21597,0.07459 8.28402,0.209828 0.27417,0.544944 11.33007,40.139039 11.2516,40.294993 -0.0493,0.09806 -2.69541,0.178295 -5.88015,0.178295 h -5.79044 z m -4.98932,-17.326363 c 0.12977,-0.257922 -2.16565,-8.479647 -2.39156,-8.566081 -0.21021,-0.08043 -2.68178,8.2689 -2.53445,8.561722 0.12161,0.241714 4.8045,0.245858 4.92601,0.0044 z m -87.183607,17.441198 -7.471236,-0.06682 0.04495,-7.075398 0.04495,-7.075397 13.145382,-0.108111 c 7.22996,-0.05946 13.164588,-0.130236 13.188062,-0.15728 0.260482,-0.300094 -0.308701,-1.32991 -2.186729,-3.956418 -3.743694,-5.235726 -4.492066,-6.946386 -4.483227,-10.24796 0.01451,-5.420618 3.341639,-10.552871 7.531955,-11.618391 0.631839,-0.160665 8.265509,-0.230042 25.311562,-0.230042 h 24.406878 l -0.0451,6.553337 -0.0451,6.553337 -7.170209,0.104854 -7.170209,0.104853 -0.08536,13.526088 -0.08536,13.526087 h -6.060533 -6.060534 l -0.04393,-13.580628 -0.04393,-13.58063 -7.806848,0.05454 c -8.862807,0.06192 -8.380037,-0.05466 -7.365268,1.778601 0.305089,0.55117 1.528331,2.559201 2.718314,4.46229 1.189985,1.903089 2.440524,3.979186 2.778979,4.613549 2.015572,3.777782 1.266038,9.275982 -1.779614,13.054313 -1.601357,1.98659 -3.101048,2.847445 -5.38639,3.091906 -2.051675,0.219465 -15.740108,0.36402 -25.881441,0.273319 z M 141.93455,64.485397 c -0.0452,-0.145581 -0.0623,-9.182473 -0.0381,-20.081984 l 0.044,-19.817291 12.0357,0.01713 c 13.561,0.01931 13.22939,-0.01443 15.76154,1.603794 2.61984,1.674259 4.59624,4.730737 5.31973,8.226914 0.33147,1.601797 0.33147,4.496435 0,6.098232 -0.64247,3.104644 -2.44589,6.194027 -4.54466,7.785301 -0.55063,0.417489 -1.00115,0.885034 -1.00115,1.038988 0,0.153957 0.18921,0.432208 0.42046,0.618338 0.3641,0.293048 1.53462,0.362341 8.73087,0.516862 5.42449,0.116477 8.3731,0.255471 8.49096,0.400254 0.11642,0.143004 0.20644,2.643306 0.25337,7.037416 l 0.0728,6.815607 -10.13659,-0.0042 c -10.36285,-0.0042 -11.95775,-0.103719 -13.09558,-0.81676 -1.11677,-0.69985 -3.61272,-3.217625 -6.43055,-6.486812 -1.50233,-1.742965 -2.78779,-3.170959 -2.85657,-3.17332 -0.0688,-0.0024 -0.1456,2.331316 -0.17072,5.18595 l -0.0457,5.190251 -6.36385,0.05499 c -4.99967,0.0432 -6.38146,-0.0017 -6.446,-0.209706 z m 20.87849,-24.274754 c 0.55748,-0.637978 0.76016,-1.794121 0.46609,-2.658663 -0.41132,-1.209263 -1.03252,-1.398541 -4.86427,-1.48213 -2.06395,-0.04502 -3.42633,0.008 -3.5851,0.139539 -0.20288,0.168089 -0.24603,0.612092 -0.20772,2.137328 0.0266,1.058841 0.0887,2.005449 0.13811,2.10357 0.0494,0.09812 1.79927,0.178404 3.88868,0.178404 3.5588,0 3.822,-0.02642 4.16421,-0.418048 z"
         id="path3719"
         inkscape:connector-curvature="0" />
      <path
         style="fill:#de5d5d;stroke-width:0.18921149"
         d="m 56.720806,125.72091 c -0.07699,-0.1462 -1.187328,-3.99336 -2.467425,-8.54924 -1.377628,-4.90298 -2.413682,-8.28342 -2.538749,-8.28342 -0.12273,0 -1.202243,3.34015 -2.575473,7.96886 -1.300298,4.38287 -2.441719,8.18118 -2.53649,8.4407 -0.171583,0.46984 -0.18923,0.47184 -4.166972,0.47184 -2.994197,0 -4.035849,-0.0657 -4.159127,-0.26214 -0.280543,-0.44713 -10.99524,-39.397206 -10.938081,-39.762117 0.04853,-0.309802 0.628793,-0.349833 5.790652,-0.399485 4.618901,-0.04443 5.773585,-6.29e-4 5.925924,0.224862 0.104064,0.154023 0.847082,2.576499 1.651151,5.38328 1.669617,5.828165 1.661002,5.803648 1.903468,5.417471 0.0951,-0.151463 0.846197,-2.651778 1.669112,-5.556257 0.882936,-3.116329 1.59975,-5.329679 1.748826,-5.39995 0.138941,-0.06549 2.728423,-0.119077 5.754405,-0.119077 4.144617,0 5.567921,0.06466 5.769899,0.262133 0.147464,0.144173 0.941851,2.69528 1.765305,5.669125 0.881572,3.183727 1.574458,5.37536 1.685105,5.330067 0.103353,-0.04231 0.879329,-2.522638 1.724389,-5.511845 l 1.536473,-5.43492 5.878999,-0.05523 c 3.23345,-0.03037 5.936827,0.01682 6.007505,0.104854 0.07068,0.08804 -2.390037,9.172229 -5.468257,20.187079 l -5.596765,20.027 -4.11195,0.0561 c -3.173241,0.0433 -4.143904,-0.005 -4.251924,-0.20971 z m 58.610304,0.0942 c -0.0455,-0.0904 -0.10761,-9.12609 -0.13812,-20.07942 l -0.0555,-19.915146 11.68498,-0.05389 c 11.34226,-0.05231 11.72258,-0.04122 12.96697,0.378135 4.96914,1.674597 8.71431,7.259722 8.72164,13.006505 0.005,3.698726 -1.63273,7.295836 -4.54818,9.991306 -1.2868,1.18971 -1.29003,1.19516 -0.92398,1.55926 0.52818,0.52537 1.10994,0.57248 8.12034,0.6576 6.64939,0.0807 12.0937,-0.0599 12.30315,-0.31779 0.15958,-0.19649 -0.70088,-1.54814 -2.88197,-4.52713 -0.95635,-1.30621 -2.02892,-2.91073 -2.38349,-3.5656 -1.77351,-3.275602 -1.98559,-8.089645 -0.51371,-11.661042 0.63127,-1.531717 2.62015,-3.868625 3.98428,-4.681473 2.18651,-1.302879 2.19482,-1.30363 14.45943,-1.307044 l 11.13943,-0.0031 v 6.81547 6.815471 h -7.84302 c -4.44163,0 -7.88403,0.08154 -7.93761,0.188027 -0.1165,0.231558 0.88967,1.927981 3.4955,5.893461 2.46097,3.74506 2.98284,4.74402 3.43854,6.58199 0.43805,1.76683 0.35564,4.1251 -0.21596,6.18036 -0.46837,1.68406 -1.80947,4.16185 -2.85321,5.27148 -1.07857,1.14666 -2.94753,2.26144 -4.30257,2.56636 -1.66558,0.3748 -30.79038,0.36909 -32.11802,-0.006 -1.67223,-0.47282 -4.18325,-2.80483 -8.37759,-7.78038 -1.2739,-1.51118 -2.40173,-2.74759 -2.50627,-2.74759 -0.13445,0 -0.19009,1.49885 -0.19009,5.12066 0,2.81637 -0.0466,5.26994 -0.10363,5.45238 -0.0918,0.29394 -0.80025,0.33171 -6.22117,0.33171 -3.36466,0 -6.15475,-0.0739 -6.20021,-0.16428 z m 20.48209,-24.42412 c 1.02616,-0.6707 1.18639,-2.515394 0.30672,-3.531195 -0.43211,-0.498982 -0.48718,-0.506259 -4.35072,-0.57497 l -3.91308,-0.06959 v 2.201609 c 0,1.558666 0.0623,2.236006 0.2134,2.319386 0.11737,0.0648 1.78828,0.0917 3.71314,0.0597 2.86351,-0.0475 3.59624,-0.12112 4.03054,-0.40498 z m -36.974328,23.90686 c -0.0871,-0.25952 -0.412666,-1.46271 -0.723469,-2.67377 l -0.565096,-2.20192 -3.071374,-0.1311 c -5.599149,-0.23901 -9.073002,-0.2095 -9.26218,0.0787 -0.09464,0.14417 -0.452399,1.37095 -0.795014,2.72618 L 83.798805,125.56 h -5.777677 c -4.418049,0 -5.817511,-0.0617 -5.946952,-0.26213 -0.118807,-0.18399 1.483552,-6.13908 5.37464,-19.97458 3.049151,-10.841836 5.622708,-19.831301 5.719013,-19.976584 0.137268,-0.207081 1.927939,-0.252386 8.288467,-0.209707 l 8.113371,0.05444 5.671473,20.027001 c 3.99963,14.1234 5.62122,20.10427 5.501,20.28913 -0.13035,0.20044 -1.53265,0.26214 -5.95768,0.26214 h -5.787215 z m -5.060673,-17.52433 c 0.07836,-0.15575 -2.028181,-7.971269 -2.20809,-8.192267 -0.04245,-0.05215 -0.115327,-0.04797 -0.161939,0.0093 -0.190555,0.234075 -2.447554,8.031327 -2.3696,8.186267 0.111304,0.22122 4.628248,0.21809 4.739629,-0.003 z m 13.548931,-27.4446 -0.6402,-0.09092 v -1.14073 c 0,-0.627398 0.0422,-1.140727 0.0938,-1.140727 0.0516,0 0.32877,0.149232 0.6159,0.331626 0.63896,0.405875 1.24457,0.24986 1.59735,-0.411503 0.37336,-0.699962 0.10298,-1.416446 -0.83308,-2.207552 -1.14178,-0.964964 -1.47401,-1.583781 -1.47401,-2.745534 0,-1.198625 0.42396,-1.959575 1.28661,-2.309291 0.88332,-0.358097 1.93191,-0.0887 2.05807,0.52874 0.17158,0.839721 0.0164,1.26051 -0.44778,1.214634 -1.47281,-0.145547 -1.57189,0.617295 -0.24054,1.852028 0.52204,0.484154 1.07221,1.17138 1.22261,1.527167 0.56927,1.346732 0.20257,3.226452 -0.80602,4.131718 -0.46695,0.41911 -1.43427,0.602156 -2.43275,0.460348 z m 41.82622,-0.01447 c -0.4319,-0.07267 -0.46948,-0.15343 -0.46948,-1.008749 0,-0.919732 0.006,-0.929751 0.58744,-0.929751 0.32309,0 0.64959,-0.117961 0.72556,-0.262134 0.076,-0.144173 0.17652,-1.86639 0.22347,-3.827149 l 0.0854,-3.565015 h 0.76824 0.76823 v 3.901125 c 0,4.127898 -0.0902,4.696889 -0.83916,5.290915 -0.42804,0.339515 -1.20858,0.508629 -1.84966,0.400758 z m -132.303572,-3.878286 -0.04653,-3.827149 -0.734871,-0.06504 -0.734871,-0.06504 0.05199,-0.878636 0.05199,-0.878638 2.347389,-0.05835 2.34739,-0.05834 v 0.949598 c 0,0.934489 -0.009,0.949599 -0.563373,0.949599 -0.936264,0 -0.9731,0.156384 -0.9731,4.131223 v 3.627928 h -0.849745 -0.849745 z m 13.906563,-0.943681 0.04588,-4.770829 0.810917,-0.06392 0.810916,-0.06392 v 1.647203 c 0,1.001549 0.0803,1.74584 0.204863,1.898851 0.112675,0.138406 0.51984,0.251648 0.904812,0.251648 0.384972,0 0.792138,-0.113242 0.904812,-0.251648 0.124564,-0.153011 0.204863,-0.897302 0.204863,-1.898851 v -1.647203 l 0.810917,0.06392 0.810916,0.06392 0.04588,4.770829 0.04589,4.77083 h -0.850154 -0.850155 l -0.04933,-1.834935 -0.04933,-1.834934 h -1.024316 -1.024315 l -0.04933,1.834934 -0.04933,1.834935 H 31.56061 30.710455 Z m 16.389034,0.0063 0.0459,-4.777121 h 2.133991 2.13399 l 0.0525,0.891254 c 0.05808,0.986091 0.124054,0.942208 -1.345659,0.895095 -1.085312,-0.03479 -1.409678,0.256872 -1.322642,1.189292 0.05056,0.541653 0.12413,0.597863 0.908612,0.694228 l 0.853596,0.104853 v 0.943681 0.94368 l -0.853596,0.104854 c -0.784482,0.09636 -0.85805,0.152574 -0.908612,0.694228 -0.08704,0.932419 0.23733,1.224083 1.322642,1.189291 1.469713,-0.04711 1.403741,-0.091 1.345659,0.895095 l -0.0525,0.891254 -2.179888,0.05872 -2.179889,0.05872 0.0459,-4.777124 z m 27.275619,-0.07021 v -4.834746 l 0.810916,0.06392 0.810916,0.06392 0.08536,3.774722 0.08536,3.774722 1.237714,0.06161 1.237715,0.06161 v 0.934493 0.934494 h -2.133991 -2.13399 z m 14.511136,4.659875 c 0,-0.447982 3.435901,-9.157081 3.612638,-9.157081 0.148676,0 3.72829,8.899373 3.72829,9.269002 0,0.03462 -0.445055,0.06295 -0.989011,0.06295 -0.968489,0 -0.992401,-0.01413 -1.152355,-0.681547 L 93.968348,78.90018 H 92.6212 c -1.386201,0 -1.469807,0.04876 -1.708123,0.996107 -0.07336,0.291612 -0.286268,0.366987 -1.036634,0.366987 -0.519372,0 -0.944313,-0.07869 -0.944313,-0.174871 z m 4.267981,-3.505412 c 0,-0.453069 -0.486338,-1.562387 -0.68497,-1.562387 -0.210126,0 -0.709064,1.451792 -0.584215,1.699932 0.05187,0.103087 0.358651,0.187429 0.681744,0.187429 0.416724,0 0.587441,-0.09444 0.587441,-0.324974 z m 29.324879,-0.146866 -0.0465,-3.827149 -0.73487,-0.06504 -0.73487,-0.06504 0.052,-0.878636 0.052,-0.878638 2.34293,-0.05831 2.34294,-0.05831 0.10493,0.513564 c 0.18977,0.928764 0.0335,1.275218 -0.60889,1.350268 -1.01413,0.118474 -1.02361,0.156911 -1.02361,4.150252 v 3.644193 h -0.84974 -0.84975 z m 40.23435,3.559829 c -0.0459,-0.147025 -0.0627,-2.293898 -0.0373,-4.770829 l 0.0462,-4.50351 h 2.13399 2.13399 v 0.929911 0.929911 l -1.04368,-0.05232 c -1.34617,-0.06749 -1.84042,0.437253 -1.49885,1.530656 0.075,0.23994 0.33473,0.331712 0.93896,0.331712 h 0.83533 v 1.048534 1.048534 h -0.83533 c -0.60423,0 -0.864,0.09177 -0.93896,0.331712 -0.3417,1.09382 0.15273,1.59842 1.49885,1.529685 l 1.04368,-0.05329 0.052,0.983309 0.052,0.983309 h -2.1487 c -1.5837,0 -2.17066,-0.07029 -2.23221,-0.26732 z m 14.9468,-4.457664 c 0,-5.46845 -0.17267,-5.026382 1.96327,-5.026382 1.17472,0 1.4749,0.07881 2.14598,0.563434 2.72811,1.970105 2.58989,7.061115 -0.23556,8.677055 -0.72313,0.413575 -1.16084,0.507157 -2.3799,0.508828 l -1.49379,0.0021 v -4.724983 z m 3.26362,2.265509 c 0.27471,-0.199322 0.65589,-0.759363 0.84709,-1.244536 0.47885,-1.215086 0.31124,-2.229427 -0.54249,-3.282818 -0.53285,-0.657479 -0.74941,-0.788596 -1.21221,-0.733973 l -0.56346,0.0665 -0.0476,2.778615 -0.0477,2.778615 h 0.53347 c 0.2934,0 0.7582,-0.163083 1.03288,-0.362407 z m 13.33562,-2.311355 0.0459,-4.770829 0.81091,-0.06392 0.81092,-0.06392 v 4.834746 4.834746 h -0.85681 -0.85678 z M 126.08851,64.692545 c -0.13146,-0.259512 -0.45313,-1.368337 -0.71483,-2.464055 -0.2617,-1.095718 -0.55924,-2.099748 -0.6612,-2.231179 -0.19921,-0.256784 -11.87055,-0.552932 -12.18734,-0.30924 -0.0921,0.07083 -0.44891,1.237616 -0.79295,2.592846 l -0.62553,2.464055 h -6.05105 c -4.60152,0 -6.051044,-0.06044 -6.051044,-0.252322 0,-0.292067 10.885464,-39.093551 11.121934,-39.644394 0.1467,-0.341711 0.72083,-0.366987 8.33599,-0.366987 5.27133,0 8.21597,0.07459 8.28402,0.209828 0.27417,0.544944 11.33007,40.139039 11.2516,40.294993 -0.0493,0.09806 -2.69541,0.178295 -5.88015,0.178295 h -5.79044 z m -4.98932,-17.326363 c 0.12977,-0.257922 -2.16565,-8.479647 -2.39156,-8.566081 -0.21021,-0.08043 -2.68178,8.2689 -2.53445,8.561722 0.12161,0.241714 4.8045,0.245858 4.92601,0.0044 z m -87.183607,17.441198 -7.471236,-0.06682 0.04495,-7.075398 0.04495,-7.075397 13.145382,-0.108111 c 7.22996,-0.05946 13.164588,-0.130236 13.188062,-0.15728 0.260482,-0.300094 -0.308701,-1.32991 -2.186729,-3.956418 -3.743694,-5.235726 -4.492066,-6.946386 -4.483227,-10.24796 0.01451,-5.420618 3.341639,-10.552871 7.531955,-11.618391 0.631839,-0.160665 8.265509,-0.230042 25.311562,-0.230042 h 24.406878 l -0.0451,6.553337 -0.0451,6.553337 -7.170209,0.104854 -7.170209,0.104853 -0.08536,13.526088 -0.08536,13.526087 h -6.060533 -6.060534 l -0.04393,-13.580628 -0.04393,-13.58063 -7.806848,0.05454 c -8.862807,0.06192 -8.380037,-0.05466 -7.365268,1.778601 0.305089,0.55117 1.528331,2.559201 2.718314,4.46229 1.189985,1.903089 2.440524,3.979186 2.778979,4.613549 2.015572,3.777782 1.266038,9.275982 -1.779614,13.054313 -1.601357,1.98659 -3.101048,2.847445 -5.38639,3.091906 -2.051675,0.219465 -15.740108,0.36402 -25.881441,0.273319 z M 141.93455,64.485397 c -0.0452,-0.145581 -0.0623,-9.182473 -0.0381,-20.081984 l 0.044,-19.817291 12.0357,0.01713 c 13.561,0.01931 13.22939,-0.01443 15.76154,1.603794 2.61984,1.674259 4.59624,4.730737 5.31973,8.226914 0.33147,1.601797 0.33147,4.496435 0,6.098232 -0.64247,3.104644 -2.44589,6.194027 -4.54466,7.785301 -0.55063,0.417489 -1.00115,0.885034 -1.00115,1.038988 0,0.153957 0.18921,0.432208 0.42046,0.618338 0.3641,0.293048 1.53462,0.362341 8.73087,0.516862 5.42449,0.116477 8.3731,0.255471 8.49096,0.400254 0.11642,0.143004 0.20644,2.643306 0.25337,7.037416 l 0.0728,6.815607 -10.13659,-0.0042 c -10.36285,-0.0042 -11.95775,-0.103719 -13.09558,-0.81676 -1.11677,-0.69985 -3.61272,-3.217625 -6.43055,-6.486812 -1.50233,-1.742965 -2.78779,-3.170959 -2.85657,-3.17332 -0.0688,-0.0024 -0.1456,2.331316 -0.17072,5.18595 l -0.0457,5.190251 -6.36385,0.05499 c -4.99967,0.0432 -6.38146,-0.0017 -6.446,-0.209706 z m 20.87849,-24.274754 c 0.55748,-0.637978 0.76016,-1.794121 0.46609,-2.658663 -0.41132,-1.209263 -1.03252,-1.398541 -4.86427,-1.48213 -2.06395,-0.04502 -3.42633,0.008 -3.5851,0.139539 -0.20288,0.168089 -0.24603,0.612092 -0.20772,2.137328 0.0266,1.058841 0.0887,2.005449 0.13811,2.10357 0.0494,0.09812 1.79927,0.178404 3.88868,0.178404 3.5588,0 3.822,-0.02642 4.16421,-0.418048 z"
         id="path3717"
         inkscape:connector-curvature="0" />
      <path
         style="fill:#cd0808;stroke-width:0.18921149"
         d="m 56.347358,123.93471 c -0.292283,-1.00921 -1.377593,-4.85043 -2.411802,-8.53604 -1.034207,-3.68561 -1.956842,-6.79504 -2.050301,-6.90984 -0.112749,-0.1385 -0.228125,-0.13723 -0.34291,0.004 -0.09514,0.11687 -1.267488,3.88688 -2.605211,8.37779 -1.337722,4.49091 -2.493591,8.28325 -2.568596,8.42742 -0.10242,0.19688 -1.084957,0.26214 -3.946575,0.26214 -2.840705,0 -3.854882,-0.0667 -3.985789,-0.26214 C 38.264097,125.04091 27.4732,86.261129 27.4732,85.899626 c 0,-0.101865 2.573707,-0.183976 5.766592,-0.183976 h 5.766593 l 1.601908,5.566084 c 1.252156,4.350814 1.661117,5.552371 1.873094,5.50328 0.245682,-0.05689 0.819884,-1.887981 3.159687,-10.075998 l 0.285431,-0.99885 5.839322,0.05517 5.83932,0.05517 1.551091,5.557229 c 1.045925,3.747333 1.63617,5.577549 1.812325,5.619614 0.199268,0.04759 0.577671,-1.071656 1.595238,-4.718403 0.7337,-2.629432 1.471103,-5.18185 1.638672,-5.67204 l 0.304671,-0.891254 h 5.725161 c 4.629134,0 5.725162,0.05301 5.725162,0.276899 0,0.27766 -10.851643,39.249879 -11.024768,39.593969 -0.05067,0.10072 -1.883535,0.18313 -4.073026,0.18313 H 56.87878 Z m 58.999122,-17.92732 c -0.0557,-10.872107 -0.0423,-19.841348 0.0298,-19.931642 0.0721,-0.09029 5.46391,-0.137477 11.98188,-0.104853 l 11.85084,0.05931 1.10967,0.486023 c 2.52258,1.104853 4.90202,3.383986 6.32877,6.061961 1.07422,2.016301 1.53329,3.70232 1.64646,6.046928 0.10546,2.184933 -0.15304,3.597593 -1.03356,5.648203 -0.63905,1.48825 -2.47976,3.94079 -3.78901,5.04844 -0.51332,0.43427 -0.93331,0.91327 -0.93331,1.06445 0,0.15118 0.20783,0.44219 0.46184,0.64669 0.40871,0.32905 1.14021,0.39039 6.35929,0.53323 5.5726,0.15252 13.12241,0.0443 13.96394,-0.20015 0.21127,-0.0614 0.38412,-0.23443 0.38412,-0.38457 0,-0.36952 -1.05019,-1.97523 -3.25773,-4.98099 -2.68347,-3.65379 -3.57104,-5.98515 -3.57104,-9.380022 0,-4.415641 1.79347,-7.954348 4.97796,-9.822068 0.7832,-0.459357 1.83112,-0.938063 2.32869,-1.063792 0.59812,-0.151136 4.63321,-0.2286 11.90767,-0.2286 h 11.00299 v 6.605764 6.605764 h -7.85845 c -6.69485,0 -7.87245,0.04487 -7.9531,0.303026 -0.12345,0.395155 0.42419,1.345948 3.32827,5.778468 3.17529,4.84648 3.94404,6.66596 3.94277,9.33195 -0.002,3.98594 -2.36164,8.60091 -5.28775,10.34129 -1.97122,1.17243 -2.27722,1.19203 -18.6084,1.19232 -16.91368,2.1e-4 -15.88434,0.0978 -18.04691,-1.70899 -1.4717,-1.22956 -2.75115,-2.58679 -5.89829,-6.25685 -1.38597,-1.61626 -2.61515,-2.93865 -2.73151,-2.93865 -0.16067,0 -0.23211,1.31183 -0.29693,5.45238 l -0.0854,5.45237 -6.07614,0.055 -6.07614,0.055 z m 19.69897,-4.14877 c 1.17408,-0.27351 1.69955,-0.892 1.80149,-2.120359 0.10455,-1.259873 -0.37295,-2.179305 -1.28922,-2.482377 -0.40984,-0.135561 -2.08869,-0.202166 -4.23309,-0.167938 l -3.55387,0.05672 -0.0487,2.28979 c -0.036,1.690754 0.009,2.334544 0.17072,2.460844 0.31634,0.24655 6.06342,0.21708 7.15272,-0.0367 z m -35.974195,23.4545 c -0.0683,-0.13574 -0.402982,-1.33894 -0.743741,-2.67376 l -0.619559,-2.42694 -1.699085,-0.13265 c -3.29271,-0.25707 -10.80038,-0.20445 -10.950527,0.0767 -0.07596,0.14226 -0.409132,1.34546 -0.740374,2.67376 l -0.602258,2.41511 -4.007162,0.0651 c -4.669582,0.0759 -7.509847,-0.0954 -7.500717,-0.45231 0.0034,-0.13307 2.48894,-9.06536 5.523415,-19.84954 l 5.517226,-19.60758 h 8.091445 8.091446 l 5.585426,19.71244 c 3.07198,10.84184 5.58796,19.81577 5.59105,19.94206 0.012,0.4879 -11.293699,0.74028 -11.536585,0.25753 z m -5.095611,-17.38305 c 0.06204,-0.12332 -0.409719,-2.10505 -1.048361,-4.40384 -0.85823,-3.08921 -1.232188,-4.179639 -1.433386,-4.179639 -0.198439,0 -0.609726,1.134009 -1.517498,4.184059 -0.684903,2.30123 -1.195518,4.28296 -1.134699,4.40384 0.151858,0.30183 4.981955,0.29766 5.133944,-0.004 z m 13.351486,-27.60119 -0.6402,-0.09092 v -1.14073 c 0,-0.627398 0.0422,-1.140727 0.0938,-1.140727 0.0516,0 0.32877,0.149232 0.6159,0.331626 0.63896,0.405875 1.24457,0.24986 1.59735,-0.411503 0.37336,-0.699962 0.10298,-1.416446 -0.83308,-2.207552 -1.14178,-0.964964 -1.47401,-1.583781 -1.47401,-2.745534 0,-1.198625 0.42396,-1.959575 1.28661,-2.309291 0.88332,-0.358097 1.93191,-0.0887 2.05807,0.52874 0.17158,0.839721 0.0164,1.26051 -0.44778,1.214634 -1.47281,-0.145547 -1.57189,0.617295 -0.24054,1.852028 0.52204,0.484154 1.07221,1.17138 1.22261,1.527167 0.56927,1.346732 0.20257,3.226452 -0.80602,4.131718 -0.46695,0.41911 -1.43427,0.602156 -2.43275,0.460348 z m 41.82622,-0.01447 c -0.4319,-0.07267 -0.46948,-0.15343 -0.46948,-1.008749 0,-0.919732 0.006,-0.929751 0.58744,-0.929751 0.32309,0 0.64959,-0.117961 0.72556,-0.262134 0.076,-0.144173 0.17652,-1.86639 0.22347,-3.827149 l 0.0854,-3.565015 h 0.76824 0.76823 v 3.901125 c 0,4.127898 -0.0902,4.696889 -0.83916,5.290915 -0.42804,0.339515 -1.20858,0.508629 -1.84966,0.400758 z m -132.303572,-3.878286 -0.04653,-3.827149 -0.734871,-0.06504 -0.734871,-0.06504 0.05199,-0.878636 0.05199,-0.878638 2.347389,-0.05835 2.34739,-0.05834 v 0.949598 c 0,0.934489 -0.009,0.949599 -0.563373,0.949599 -0.936264,0 -0.9731,0.156384 -0.9731,4.131223 v 3.627928 h -0.849745 -0.849745 z m 13.906563,-0.943681 0.04588,-4.770829 0.810917,-0.06392 0.810916,-0.06392 v 1.647203 c 0,1.001549 0.0803,1.74584 0.204863,1.898851 0.112675,0.138406 0.51984,0.251648 0.904812,0.251648 0.384972,0 0.792138,-0.113242 0.904812,-0.251648 0.124564,-0.153011 0.204863,-0.897302 0.204863,-1.898851 v -1.647203 l 0.810917,0.06392 0.810916,0.06392 0.04588,4.770829 0.04589,4.77083 h -0.850154 -0.850155 l -0.04933,-1.834935 -0.04933,-1.834934 h -1.024316 -1.024315 l -0.04933,1.834934 -0.04933,1.834935 H 31.56061 30.710455 Z m 16.389034,0.0063 0.0459,-4.777121 h 2.133991 2.13399 l 0.0525,0.891254 c 0.05808,0.986091 0.124054,0.942208 -1.345659,0.895095 -1.085312,-0.03479 -1.409678,0.256872 -1.322642,1.189292 0.05056,0.541653 0.12413,0.597863 0.908612,0.694228 l 0.853596,0.104853 v 0.943681 0.94368 l -0.853596,0.104854 c -0.784482,0.09636 -0.85805,0.152574 -0.908612,0.694228 -0.08704,0.932419 0.23733,1.224083 1.322642,1.189291 1.469713,-0.04711 1.403741,-0.091 1.345659,0.895095 l -0.0525,0.891254 -2.179888,0.05872 -2.179889,0.05872 0.0459,-4.777124 z m 27.275619,-0.07021 v -4.834746 l 0.810916,0.06392 0.810916,0.06392 0.08536,3.774722 0.08536,3.774722 1.237714,0.06161 1.237715,0.06161 v 0.934493 0.934494 h -2.133991 -2.13399 z m 14.511136,4.659875 c 0,-0.447982 3.435901,-9.157081 3.612638,-9.157081 0.148676,0 3.72829,8.899373 3.72829,9.269002 0,0.03462 -0.445055,0.06295 -0.989011,0.06295 -0.968489,0 -0.992401,-0.01413 -1.152355,-0.681547 L 93.968348,78.90018 H 92.6212 c -1.386201,0 -1.469807,0.04876 -1.708123,0.996107 -0.07336,0.291612 -0.286268,0.366987 -1.036634,0.366987 -0.519372,0 -0.944313,-0.07869 -0.944313,-0.174871 z m 4.267981,-3.505412 c 0,-0.453069 -0.486338,-1.562387 -0.68497,-1.562387 -0.210126,0 -0.709064,1.451792 -0.584215,1.699932 0.05187,0.103087 0.358651,0.187429 0.681744,0.187429 0.416724,0 0.587441,-0.09444 0.587441,-0.324974 z m 29.324879,-0.146866 -0.0465,-3.827149 -0.73487,-0.06504 -0.73487,-0.06504 0.052,-0.878636 0.052,-0.878638 2.34293,-0.05831 2.34294,-0.05831 0.10493,0.513564 c 0.18977,0.928764 0.0335,1.275218 -0.60889,1.350268 -1.01413,0.118474 -1.02361,0.156911 -1.02361,4.150252 v 3.644193 h -0.84974 -0.84975 z m 40.23435,3.559829 c -0.0459,-0.147025 -0.0627,-2.293898 -0.0373,-4.770829 l 0.0462,-4.50351 h 2.13399 2.13399 v 0.929911 0.929911 l -1.04368,-0.05232 c -1.34617,-0.06749 -1.84042,0.437253 -1.49885,1.530656 0.075,0.23994 0.33473,0.331712 0.93896,0.331712 h 0.83533 v 1.048534 1.048534 h -0.83533 c -0.60423,0 -0.864,0.09177 -0.93896,0.331712 -0.3417,1.09382 0.15273,1.59842 1.49885,1.529685 l 1.04368,-0.05329 0.052,0.983309 0.052,0.983309 h -2.1487 c -1.5837,0 -2.17066,-0.07029 -2.23221,-0.26732 z m 14.9468,-4.457664 c 0,-5.46845 -0.17267,-5.026382 1.96327,-5.026382 1.17472,0 1.4749,0.07881 2.14598,0.563434 2.72811,1.970105 2.58989,7.061115 -0.23556,8.677055 -0.72313,0.413575 -1.16084,0.507157 -2.3799,0.508828 l -1.49379,0.0021 v -4.724983 z m 3.26362,2.265509 c 0.27471,-0.199322 0.65589,-0.759363 0.84709,-1.244536 0.47885,-1.215086 0.31124,-2.229427 -0.54249,-3.282818 -0.53285,-0.657479 -0.74941,-0.788596 -1.21221,-0.733973 l -0.56346,0.0665 -0.0476,2.778615 -0.0477,2.778615 h 0.53347 c 0.2934,0 0.7582,-0.163083 1.03288,-0.362407 z m 13.33562,-2.311355 0.0459,-4.770829 0.81091,-0.06392 0.81092,-0.06392 v 4.834746 4.834746 h -0.85681 -0.85678 z M 126.15491,64.482838 c -0.0866,-0.259512 -0.41143,-1.462705 -0.72189,-2.673761 l -0.56449,-2.201922 -2.73151,-0.128879 c -5.12111,-0.241631 -9.38488,-0.208025 -9.70037,0.07645 -0.1599,0.144173 -0.54932,1.300182 -0.86538,2.568908 l -0.57465,2.306774 -5.91067,0.05514 c -3.25086,0.03033 -5.910665,0.0084 -5.910665,-0.04869 0,-0.282676 10.999185,-39.257997 11.142675,-39.483755 0.24271,-0.381876 16.08965,-0.381876 16.2893,0 0.25141,0.480866 11.26589,39.790011 11.1791,39.896624 -0.047,0.05772 -2.64787,0.104945 -5.77973,0.104945 h -5.6943 z m -4.86074,-16.997429 c 0.047,-0.150322 -0.46424,-2.278292 -1.13599,-4.728823 -0.92863,-3.387618 -1.28361,-4.440447 -1.48106,-4.392663 -0.30003,0.07261 -2.84259,8.654563 -2.69964,9.112158 0.12611,0.403698 5.19071,0.412584 5.31669,0.0093 z M 26.619604,57.614941 v -6.920324 h 13.039119 c 14.125105,0 13.603446,0.04289 13.358715,-1.098237 -0.05598,-0.261011 -0.952728,-1.654165 -1.992777,-3.095899 -3.885611,-5.3863 -4.474131,-6.629962 -4.573352,-9.664406 -0.07976,-2.439244 0.132998,-3.776956 0.920628,-5.788476 1.037988,-2.650909 3.075524,-4.943474 5.338391,-6.006577 l 0.968277,-0.4549 24.79948,-0.05719 24.799475,-0.05719 -0.0452,6.348393 -0.0452,6.348392 -7.170211,0.104854 -7.170209,0.104853 -0.04393,13.58123 -0.04393,13.58123 -5.931248,-0.05514 -5.931247,-0.05514 -0.08536,-13.526087 -0.08536,-13.526088 -7.597006,-0.05821 c -4.178354,-0.03202 -7.76986,-0.0066 -7.981125,0.05642 -0.881552,0.263084 -0.385238,1.367754 3.015824,6.712471 3.314002,5.207905 3.666168,6.072159 3.674385,9.017327 0.0042,1.505999 -0.08358,2.422155 -0.31144,3.250455 -0.882142,3.206696 -2.556739,5.683975 -4.737024,7.007615 -1.148769,0.697411 -1.472414,0.791844 -3.313995,0.966953 -1.122491,0.106737 -8.974229,0.196298 -17.448306,0.199031 l -15.407412,0.005 z m 115.448026,-12.949394 0.0435,-19.869718 8.8774,-0.05604 c 4.88257,-0.03083 10.4907,0.02999 12.4625,0.135146 3.96027,0.211193 4.85076,0.463485 6.84349,1.938867 1.18227,0.875335 3.06966,3.288592 3.70216,4.733642 1.05621,2.413136 1.44255,6.308527 0.89107,8.984763 -0.61776,2.997857 -2.6587,6.485346 -4.44865,7.601678 -1.22691,0.765185 -1.37325,1.353496 -0.5096,2.048615 0.3841,0.309146 1.43044,0.373811 8.74768,0.54062 4.57126,0.104208 8.34115,0.226033 8.37753,0.270719 0.0364,0.04469 0.11087,3.109788 0.16551,6.811337 l 0.0994,6.730091 h -10.00673 c -11.83107,0 -12.07416,-0.02614 -13.85588,-1.489973 -1.428,-1.173222 -3.27443,-3.123711 -6.20591,-6.555631 -1.14619,-1.341855 -2.1983,-2.439735 -2.33803,-2.439735 -0.21816,0 -0.25406,0.740875 -0.25406,5.242669 v 5.24267 h -6.31748 -6.31748 z m 20.78594,-4.232015 c 0.51177,-0.442668 0.90583,-1.761476 0.76375,-2.556074 -0.29888,-1.671569 -1.68807,-2.138372 -6.05395,-2.03428 l -2.81476,0.06711 -0.21765,0.558319 c -0.15517,0.398032 -0.18496,1.080705 -0.10379,2.377936 0.0986,1.575823 0.1618,1.844632 0.47163,2.006324 0.19677,0.102689 1.97106,0.133411 3.94286,0.06827 3.04419,-0.100569 3.6495,-0.174139 4.01191,-0.487606 z"
         id="path3715"
         inkscape:connector-curvature="0" />
      <path
         style="fill:#a40101;stroke-width:0.18921149"
         d="m 57.402208,124.25352 c -0.09082,-0.14651 -1.033363,-3.38053 -2.094539,-7.18671 -2.461298,-8.82806 -3.423849,-12.05814 -3.59329,-12.05814 -0.136104,0 -1.537943,4.5331 -4.214271,13.62759 -0.79709,2.70861 -1.521865,5.09141 -1.610608,5.2951 -0.141784,0.32542 -0.434967,0.37016 -2.417376,0.36885 -1.240813,-8.4e-4 -2.772396,-0.0614 -3.403514,-0.13462 l -1.147489,-0.13313 -0.260187,-0.86149 c -0.143102,-0.47382 -2.448938,-8.78031 -5.124078,-18.45887 -3.968373,-14.357411 -4.825312,-17.654484 -4.654338,-17.907543 0.180006,-0.266424 0.847753,-0.28936 4.735096,-0.162638 3.127241,0.101944 4.587951,0.224619 4.727529,0.397029 0.111094,0.137226 1.008012,3.033361 1.993151,6.435853 2.143716,7.404019 1.992985,6.920329 2.156554,6.920329 0.0729,0 0.173441,-0.16515 0.223429,-0.36699 0.405019,-1.635427 3.770809,-13.004182 3.911709,-13.212727 0.140297,-0.207653 1.304136,-0.254739 5.229899,-0.211585 l 5.049445,0.0555 0.20832,0.524267 c 0.114575,0.288346 0.789981,2.694732 1.500902,5.347523 1.575958,5.880667 2.199644,7.968862 2.380084,7.968862 0.123833,0 2.154735,-6.872847 3.284287,-11.114464 0.24572,-0.92271 0.572275,-1.836679 0.725676,-2.031044 0.246082,-0.31179 0.801425,-0.357198 4.717615,-0.385735 2.441285,-0.01778 4.53473,-0.02391 4.6521,-0.01359 0.117369,0.01032 0.212486,0.231076 0.211367,0.490588 -0.0012,0.259513 -2.294135,8.681861 -5.095597,18.716335 l -5.093566,18.24449 -3.416591,0.0567 c -2.606121,0.0432 -3.455762,-0.007 -3.581719,-0.20971 z m 59.091092,0.0283 c -0.22752,-0.45221 -0.39884,-10.38034 -0.40775,-23.62909 l -0.009,-13.478155 0.39009,-0.218325 c 0.50204,-0.280984 21.51361,0.111943 22.74237,0.425293 1.20783,0.308018 3.40126,1.694872 4.63648,2.931544 1.87832,1.880529 3.28694,5.03869 3.56148,7.98494 0.12855,1.379542 -0.23563,3.739463 -0.78118,5.062123 -0.87095,2.11156 -2.44506,4.11807 -4.47187,5.70025 -0.5399,0.42146 -0.98164,0.8491 -0.98164,0.95032 0,0.39355 0.74461,1.31597 1.50628,1.86597 l 0.79843,0.57655 10.07244,-0.004 c 10.82456,-0.004 10.72671,0.005 10.94898,-1.08232 0.15785,-0.77256 -0.18051,-1.44728 -2.18963,-4.36629 -2.26528,-3.2912 -3.6936,-5.6526 -4.10795,-6.79154 -0.27438,-0.75422 -0.33465,-1.390187 -0.33465,-3.531656 0,-2.598156 0.003,-2.620175 0.64487,-4.217952 0.8157,-2.031652 2.26875,-3.848789 3.91578,-4.896939 l 1.19503,-0.760506 11.26747,-0.07143 11.26747,-0.07143 0.0457,5.228437 c 0.0306,3.497951 -0.0145,5.302555 -0.13647,5.452376 -0.12052,0.148131 -2.6789,0.263482 -7.55739,0.340748 -5.3504,0.08474 -7.48063,0.187518 -7.75929,0.374367 -0.91338,0.61243 -0.27059,2.125525 3.12311,7.351695 2.28478,3.51849 3.27627,5.32704 3.51338,6.40867 0.10209,0.46572 0.15336,1.78684 0.11423,2.94325 -0.0626,1.84877 -0.13704,2.26172 -0.62646,3.47338 -0.78309,1.93872 -1.90932,3.59643 -3.11566,4.58596 -1.2108,0.99319 -1.89274,1.24957 -3.98583,1.49854 -1.88321,0.224 -27.75634,0.22808 -29.8315,0.005 -2.16585,-0.23315 -2.52828,-0.5498 -9.08349,-7.93619 -2.07279,-2.33561 -3.82644,-4.24656 -3.897,-4.24656 -0.0706,0 -0.12831,2.63458 -0.12831,5.85463 0,3.22005 -0.0466,6.00391 -0.10362,6.18635 -0.0912,0.29205 -0.70246,0.33172 -5.1115,0.33172 -3.44307,0 -5.04397,-0.0717 -5.12338,-0.22956 z m 18.78911,-21.47463 c 0.92704,-0.23801 1.29844,-0.44698 1.65613,-0.93183 1.3109,-1.77691 0.83534,-4.845975 -0.84847,-5.475682 -0.36164,-0.135245 -2.50201,-0.286689 -4.95194,-0.350379 l -4.315,-0.112174 0.047,3.4348 0.047,3.434795 0.68288,0.12752 c 1.43574,0.26812 6.46731,0.1849 7.68237,-0.12705 z m -60.178539,21.30629 c -1.210692,-0.13788 -1.536474,-0.30226 -1.536474,-0.77526 0,-0.17026 1.122075,-4.2933 2.493498,-9.16229 3.022301,-10.73015 7.578938,-27.031013 7.578938,-27.112814 0,-0.03261 0.120723,-0.207591 0.268273,-0.388836 0.235429,-0.289196 1.152487,-0.32954 7.490743,-0.32954 5.573734,0 7.261176,0.05984 7.392026,0.262134 0.141627,0.218957 8.904295,31.124916 10.117515,35.684526 0.56021,2.1054 0.74555,2.02917 -4.76846,1.96118 l -4.52293,-0.0558 -0.604976,-2.37479 c -0.350177,-1.3746 -0.723436,-2.45587 -0.886241,-2.56731 -0.154697,-0.10588 -3.304467,-0.21683 -6.999489,-0.24654 l -6.718224,-0.054 -0.457827,1.7825 c -0.251804,0.98038 -0.559098,2.15998 -0.682877,2.62134 l -0.22505,0.83883 -3.414385,0.0215 c -1.877912,0.0119 -3.913739,-0.0353 -4.52406,-0.10486 z M 95.18435,109.14236 c 0.141841,-0.1745 -0.412823,-2.35799 -2.374165,-9.346132 -0.878555,-3.130243 -1.239108,-4.17876 -1.351849,-3.931298 -0.193633,0.425023 -2.32831,7.36497 -3.308732,10.75686 l -0.739038,2.55679 0.632743,0.0911 c 1.069257,0.15399 6.998313,0.0483 7.141041,-0.12735 z m 12.14278,-28.81348 -0.6402,-0.09092 v -1.14073 c 0,-0.627398 0.0422,-1.140727 0.0938,-1.140727 0.0516,0 0.32877,0.149232 0.6159,0.331626 0.63896,0.405875 1.24457,0.24986 1.59735,-0.411503 0.37336,-0.699962 0.10298,-1.416446 -0.83308,-2.207552 -1.14178,-0.964964 -1.47401,-1.583781 -1.47401,-2.745534 0,-1.198625 0.42396,-1.959575 1.28661,-2.309291 0.88332,-0.358097 1.93191,-0.0887 2.05807,0.52874 0.17158,0.839721 0.0164,1.26051 -0.44778,1.214634 -1.47281,-0.145547 -1.57189,0.617295 -0.24054,1.852028 0.52204,0.484154 1.07221,1.17138 1.22261,1.527167 0.56927,1.346732 0.20257,3.226452 -0.80602,4.131718 -0.46695,0.41911 -1.43427,0.602156 -2.43275,0.460348 z m 41.82622,-0.01447 c -0.4319,-0.07267 -0.46948,-0.15343 -0.46948,-1.008749 0,-0.919732 0.006,-0.929751 0.58744,-0.929751 0.32309,0 0.64959,-0.117961 0.72556,-0.262134 0.076,-0.144173 0.17652,-1.86639 0.22347,-3.827149 l 0.0854,-3.565015 h 0.76824 0.76823 v 3.901125 c 0,4.127898 -0.0902,4.696889 -0.83916,5.290915 -0.42804,0.339515 -1.20858,0.508629 -1.84966,0.400758 z m -132.303572,-3.878286 -0.04653,-3.827149 -0.734871,-0.06504 -0.734871,-0.06504 0.05199,-0.878636 0.05199,-0.878638 2.347389,-0.05835 2.34739,-0.05834 v 0.949598 c 0,0.934489 -0.009,0.949599 -0.563373,0.949599 -0.936264,0 -0.9731,0.156384 -0.9731,4.131223 v 3.627928 h -0.849745 -0.849745 z m 13.906563,-0.943681 0.04588,-4.770829 0.810917,-0.06392 0.810916,-0.06392 v 1.647203 c 0,1.001549 0.0803,1.74584 0.204863,1.898851 0.112675,0.138406 0.51984,0.251648 0.904812,0.251648 0.384972,0 0.792138,-0.113242 0.904812,-0.251648 0.124564,-0.153011 0.204863,-0.897302 0.204863,-1.898851 v -1.647203 l 0.810917,0.06392 0.810916,0.06392 0.04588,4.770829 0.04589,4.77083 h -0.850154 -0.850155 l -0.04933,-1.834935 -0.04933,-1.834934 h -1.024316 -1.024315 l -0.04933,1.834934 -0.04933,1.834935 H 31.56061 30.710455 Z m 16.389034,0.0063 0.0459,-4.777121 h 2.133991 2.13399 l 0.0525,0.891254 c 0.05808,0.986091 0.124054,0.942208 -1.345659,0.895095 -1.085312,-0.03479 -1.409678,0.256872 -1.322642,1.189292 0.05056,0.541653 0.12413,0.597863 0.908612,0.694228 l 0.853596,0.104853 v 0.943681 0.94368 l -0.853596,0.104854 c -0.784482,0.09636 -0.85805,0.152574 -0.908612,0.694228 -0.08704,0.932419 0.23733,1.224083 1.322642,1.189291 1.469713,-0.04711 1.403741,-0.091 1.345659,0.895095 l -0.0525,0.891254 -2.179888,0.05872 -2.179889,0.05872 0.0459,-4.777124 z m 27.275619,-0.07021 v -4.834746 l 0.810916,0.06392 0.810916,0.06392 0.08536,3.774722 0.08536,3.774722 1.237714,0.06161 1.237715,0.06161 v 0.934493 0.934494 h -2.133991 -2.13399 z m 14.511136,4.659875 c 0,-0.447982 3.435901,-9.157081 3.612638,-9.157081 0.148676,0 3.72829,8.899373 3.72829,9.269002 0,0.03462 -0.445055,0.06295 -0.989011,0.06295 -0.968489,0 -0.992401,-0.01413 -1.152355,-0.681547 L 93.968348,78.90018 H 92.6212 c -1.386201,0 -1.469807,0.04876 -1.708123,0.996107 -0.07336,0.291612 -0.286268,0.366987 -1.036634,0.366987 -0.519372,0 -0.944313,-0.07869 -0.944313,-0.174871 z m 4.267981,-3.505412 c 0,-0.453069 -0.486338,-1.562387 -0.68497,-1.562387 -0.210126,0 -0.709064,1.451792 -0.584215,1.699932 0.05187,0.103087 0.358651,0.187429 0.681744,0.187429 0.416724,0 0.587441,-0.09444 0.587441,-0.324974 z m 29.324879,-0.146866 -0.0465,-3.827149 -0.73487,-0.06504 -0.73487,-0.06504 0.052,-0.878636 0.052,-0.878638 2.34293,-0.05831 2.34294,-0.05831 0.10493,0.513564 c 0.18977,0.928764 0.0335,1.275218 -0.60889,1.350268 -1.01413,0.118474 -1.02361,0.156911 -1.02361,4.150252 v 3.644193 h -0.84974 -0.84975 z m 40.23435,3.559829 c -0.0459,-0.147025 -0.0627,-2.293898 -0.0373,-4.770829 l 0.0462,-4.50351 h 2.13399 2.13399 v 0.929911 0.929911 l -1.04368,-0.05232 c -1.34617,-0.06749 -1.84042,0.437253 -1.49885,1.530656 0.075,0.23994 0.33473,0.331712 0.93896,0.331712 h 0.83533 v 1.048534 1.048534 h -0.83533 c -0.60423,0 -0.864,0.09177 -0.93896,0.331712 -0.3417,1.09382 0.15273,1.59842 1.49885,1.529685 l 1.04368,-0.05329 0.052,0.983309 0.052,0.983309 h -2.1487 c -1.5837,0 -2.17066,-0.07029 -2.23221,-0.26732 z m 14.9468,-4.457664 c 0,-5.46845 -0.17267,-5.026382 1.96327,-5.026382 1.17472,0 1.4749,0.07881 2.14598,0.563434 2.72811,1.970105 2.58989,7.061115 -0.23556,8.677055 -0.72313,0.413575 -1.16084,0.507157 -2.3799,0.508828 l -1.49379,0.0021 v -4.724983 z m 3.26362,2.265509 c 0.27471,-0.199322 0.65589,-0.759363 0.84709,-1.244536 0.47885,-1.215086 0.31124,-2.229427 -0.54249,-3.282818 -0.53285,-0.657479 -0.74941,-0.788596 -1.21221,-0.733973 l -0.56346,0.0665 -0.0476,2.778615 -0.0477,2.778615 h 0.53347 c 0.2934,0 0.7582,-0.163083 1.03288,-0.362407 z m 13.33562,-2.311355 0.0459,-4.770829 0.81091,-0.06392 0.81092,-0.06392 v 4.834746 4.834746 h -0.85681 -0.85678 z M 128.23926,63.750412 c -1.49125,-0.08716 -1.49062,-0.08626 -2.19264,-3.147149 l -0.493,-2.149495 -6.82987,0.0032 c -3.75644,0.0017 -6.91781,0.07254 -7.02529,0.15728 -0.10747,0.08474 -0.40313,1.003382 -0.65703,2.04143 -0.76389,3.123086 -0.19316,2.831042 -5.53257,2.831042 -3.69578,0 -4.62258,-0.05626 -4.78064,-0.290188 -0.22179,-0.328279 0.27432,-2.185223 6.36547,-23.826093 2.20683,-7.840542 3.80536,-13.211997 3.97849,-13.368807 0.2209,-0.200065 2.01561,-0.262134 7.57946,-0.262134 6.78262,0 7.29853,0.02555 7.41199,0.366987 0.36759,1.106132 10.19771,36.315105 10.27992,36.820053 0.0645,0.396384 0.0166,0.666042 -0.14007,0.787902 -0.22351,0.173852 -5.21903,0.196405 -7.96422,0.03596 z m -5.71592,-15.242936 c 0.0491,-0.06034 -0.69979,-2.966577 -1.66425,-6.458302 -2.24689,-8.134642 -2.03801,-7.478545 -2.23991,-7.035392 -0.44218,0.97056 -3.90844,12.960215 -3.90844,13.519148 0,0.307797 0.3698,0.32813 3.86164,0.212326 2.1239,-0.07044 3.90183,-0.177439 3.95096,-0.23778 z M 27.686599,63.251375 C 27.527518,63.051635 27.4732,61.664014 27.4732,57.799858 c 0,-2.850968 0.04663,-5.332847 0.103625,-5.515288 0.0932,-0.298331 1.371319,-0.331712 12.700899,-0.331712 h 12.597274 l 0.529843,-0.741272 c 0.999711,-1.398635 0.851213,-1.826338 -2.036141,-5.864492 -2.102751,-2.940832 -2.791615,-4.064136 -3.462033,-5.645407 -0.50102,-1.181719 -0.540685,-1.428215 -0.542604,-3.371985 -0.0024,-2.47476 0.325048,-3.929769 1.302728,-5.78788 0.916983,-1.742755 2.024896,-2.966971 3.626765,-4.007488 l 1.385049,-0.899678 24.146993,-0.149418 c 17.272872,-0.106881 24.210532,-0.08465 24.370172,0.07811 0.30812,0.314116 0.32522,10.032864 0.0183,10.409858 -0.15281,0.1877 -2.01828,0.251648 -7.34093,0.251648 H 87.737095 V 49.7285 c 0,12.120111 -0.02767,13.516693 -0.270042,13.630941 -0.148522,0.07001 -2.335294,0.12729 -4.859491,0.12729 -4.362732,0 -4.598181,-0.02005 -4.766177,-0.405628 -0.116472,-0.26733 -0.176726,-4.922369 -0.176726,-13.653281 V 36.180169 l -8.407923,0.09131 c -5.775521,0.06273 -8.55491,0.166579 -8.877401,0.33171 -0.403056,0.206385 -0.469478,0.360992 -0.469478,1.09277 0,1.20383 0.362871,1.9592 2.820537,5.871362 2.431535,3.870571 3.270598,5.335656 3.831034,6.689355 0.343338,0.829311 0.376477,1.166045 0.31988,3.250455 -0.05631,2.073774 -0.120052,2.472745 -0.589298,3.688394 -0.64509,1.671202 -1.723508,3.280947 -2.967768,4.429964 -1.856324,1.714231 -0.323168,1.572631 -18.864477,1.742292 -13.342092,0.122087 -16.601231,0.09947 -16.773166,-0.116408 z m 115.406211,0.09647 c -0.16848,-0.08351 -0.2134,-4.047355 -0.2134,-18.832596 0,-17.659111 0.017,-18.732235 0.29876,-18.821731 0.54272,-0.172411 21.09445,0.242849 22.67739,0.458209 1.94226,0.264247 2.70219,0.59252 4.19645,1.812764 2.27701,1.859451 3.7843,4.739845 4.06157,7.761586 0.48096,5.241523 -1.04297,9.034831 -4.80732,11.966186 -0.82601,0.643225 -1.50184,1.242135 -1.50184,1.33091 0,0.403292 1.89962,2.25793 2.42389,2.366495 0.31003,0.0642 3.86712,0.221035 7.90463,0.348516 4.03751,0.127479 7.51378,0.276914 7.72504,0.332077 0.36254,0.09466 0.38426,0.203124 0.38653,1.931232 0.002,1.007016 0.0778,3.426036 0.16995,5.375598 0.12784,2.704534 0.11899,3.616528 -0.0373,3.847887 -0.17662,0.261423 -1.62989,0.282676 -10.54114,0.154162 l -10.33629,-0.149066 -0.80996,-0.533486 c -1.3053,-0.859733 -3.73418,-3.40582 -8.39868,-8.803944 -1.22088,-1.412899 -2.2796,-2.568908 -2.3527,-2.568908 -0.0731,0 -0.13293,2.554141 -0.13293,5.67587 0,3.511489 -0.0674,5.830547 -0.17672,6.081496 -0.16889,0.387652 -0.40155,0.404894 -5.24962,0.389072 -2.79009,-0.0091 -5.16892,-0.06415 -5.28629,-0.122329 z M 163.01215,41.51962 c 0.9079,-0.568672 1.26754,-1.330436 1.33751,-2.832975 0.0712,-1.529786 -0.28801,-2.554304 -1.10148,-3.141267 -0.88866,-0.641216 -6.28135,-1.037172 -8.8879,-0.652591 l -0.89627,0.132241 v 2.775618 c 0,1.52659 0.048,3.070519 0.1067,3.430952 l 0.1067,0.655334 4.37468,-4.19e-4 c 3.82753,-2.1e-4 4.44789,-0.04619 4.96006,-0.366987 z"
         id="path3713"
         inkscape:connector-curvature="0" />
      <path
         style="fill:#5f0101;stroke-width:0.18921149"
         d="m 57.571627,124.04399 c -0.09167,-0.14661 -0.690732,-2.15392 -1.331257,-4.46069 -2.872215,-10.34395 -4.318572,-15.20375 -4.524893,-15.20375 -0.180456,0 -0.630863,1.42942 -3.533607,11.21433 -1.265171,4.26479 -2.373242,7.92155 -2.462378,8.12613 -0.141656,0.32514 -0.424677,0.37179 -2.247368,0.37049 -1.146918,-8.4e-4 -2.602453,-0.0615 -3.234521,-0.13482 l -1.149215,-0.13332 -0.318726,-1.071 c -1.564268,-5.25631 -9.777549,-35.41878 -9.706508,-35.646191 0.07702,-0.246546 0.81359,-0.277486 4.500686,-0.189059 2.944729,0.07062 4.476747,0.184811 4.613841,0.343888 0.112886,0.130989 0.930584,2.738913 1.817107,5.79539 2.18979,7.549772 2.332313,7.992602 2.52526,7.846122 0.21479,-0.16306 0.196066,-0.10286 2.307054,-7.41709 0.98048,-3.397201 1.865313,-6.299019 1.966295,-6.448483 0.261658,-0.38728 9.751152,-0.396409 9.998867,-0.0096 0.09234,0.144174 0.902202,2.951623 1.799706,6.238777 1.831863,6.709294 2.28442,8.127006 2.504622,7.846156 0.08273,-0.10552 1.006885,-3.209839 2.053672,-6.89848 1.046786,-3.688642 1.99431,-6.777751 2.105609,-6.864685 0.111298,-0.08694 2.218981,-0.159511 4.68374,-0.161277 3.503856,-0.0025 4.481381,0.05473 4.481381,0.262389 0,0.14608 -2.291416,8.474061 -5.092037,18.506633 l -5.092036,18.24103 -3.249313,0.0568 c -2.471627,0.0432 -3.289203,-0.007 -3.415981,-0.20971 z m 59.088863,0.0211 c -0.18523,-0.36815 -0.42566,-18.40514 -0.37422,-28.073837 l 0.0463,-8.702832 9.04812,-0.06275 c 9.83886,-0.06823 13.32185,0.118134 14.8941,0.796932 2.526,1.090576 4.83052,3.610664 6.03718,6.601919 l 0.75006,1.859374 v 2.543167 c 0,2.508097 -0.009,2.564737 -0.62906,4.106677 -0.81819,2.03355 -2.20028,3.88618 -3.99111,5.34988 -0.79155,0.64696 -1.48275,1.26288 -1.536,1.36872 -0.16733,0.33258 1.50782,2.28595 2.22963,2.59997 0.55636,0.24204 2.32764,0.29602 9.56028,0.29136 9.92281,-0.006 11.4358,-0.0968 11.79781,-0.70492 0.61958,-1.04083 0.23661,-2.03419 -1.98267,-5.14274 -1.72233,-2.41248 -3.62577,-5.52827 -4.03547,-6.60577 -0.34855,-0.916702 -0.39889,-1.36848 -0.40035,-3.59316 l -0.002,-2.544626 0.67827,-1.664617 c 0.83526,-2.049905 2.1816,-3.700297 3.85685,-4.727875 l 1.18397,-0.726232 10.87856,-0.130469 c 5.98321,-0.07176 10.99596,-0.07513 11.13943,-0.0075 0.22393,0.105551 0.26087,0.830927 0.26087,5.121119 0,3.03378 -0.0657,5.048009 -0.1671,5.125012 -0.0919,0.06977 -3.49136,0.199427 -7.55432,0.288118 -5.26834,0.115005 -7.49741,0.234662 -7.77135,0.417161 -0.98616,0.656988 -0.26614,2.459579 3.0052,7.523619 3.61357,5.59381 3.87265,6.24545 3.74036,9.40761 -0.0693,1.65631 -0.16269,2.11767 -0.71369,3.52486 -1.12171,2.86472 -3.16432,4.97832 -5.40171,5.58943 -1.16559,0.31836 -24.87416,0.51747 -29.45684,0.24738 -2.92725,-0.17252 -3.13299,-0.21256 -3.88903,-0.75682 -1.05317,-0.75817 -2.65838,-2.4203 -6.0802,-6.29583 -4.14718,-4.69708 -4.76632,-5.36816 -4.95266,-5.36816 -0.10745,0 -0.16892,2.16881 -0.16892,5.95949 0,3.27772 -0.0466,6.10877 -0.10362,6.29121 -0.0911,0.29168 -0.68742,0.33171 -4.94078,0.33171 -3.40694,0 -4.87236,-0.0699 -4.95619,-0.23658 z m 18.79455,-21.04059 c 1.22838,-0.35076 1.75344,-0.8064 2.14263,-1.85935 0.42633,-1.15341 0.41429,-2.313346 -0.0358,-3.455568 -0.62828,-1.594254 -1.14652,-1.756374 -6.19736,-1.938696 -2.34266,-0.08456 -4.35929,-0.106661 -4.48138,-0.04911 -0.29802,0.140477 -0.32351,7.087984 -0.0268,7.313204 0.66333,0.50359 6.8248,0.49607 8.5988,-0.0105 z m -59.695039,20.91383 c -1.160384,-0.0498 -1.708287,-0.15916 -1.850199,-0.3692 -0.160317,-0.23729 0.395606,-2.41588 2.713866,-10.63527 1.603515,-5.68526 3.9038,-13.869602 5.111746,-18.187418 1.665559,-5.953566 2.274448,-7.888266 2.519819,-8.006547 0.177956,-0.08578 3.444714,-0.162602 7.259463,-0.170707 5.355217,-0.01139 6.975006,0.045 7.107481,0.247393 0.162432,0.248165 6.485123,22.487369 9.181293,32.293959 1.19067,4.33072 1.23737,4.57102 0.92794,4.77445 -0.20392,0.13405 -1.93892,0.19323 -4.63703,0.15816 l -4.311188,-0.056 -0.602712,-2.35082 c -0.331493,-1.29295 -0.690756,-2.45803 -0.798364,-2.58905 -0.13874,-0.16893 -2.224441,-0.24762 -7.170208,-0.27051 l -6.974558,-0.0323 -0.394848,1.5728 c -0.217166,0.86504 -0.525299,2.04464 -0.684741,2.62133 l -0.28989,1.04854 -2.729645,0.011 c -1.501305,0.006 -3.471506,-0.0208 -4.378225,-0.0598 z m 19.542714,-14.57827 c 0.265912,-0.2404 0.134774,-0.82558 -1.581644,-7.05783 -1.029379,-3.737638 -1.950059,-6.892085 -2.045956,-7.009882 -0.118668,-0.145769 -0.264133,0.04887 -0.455417,0.609349 -0.890383,2.60892 -3.994761,12.942673 -3.994761,13.297623 0,0.32314 0.532776,0.37378 4.192672,0.39855 2.634393,0.0178 3.672641,-0.0457 3.885106,-0.23781 z m 12.024415,-29.03121 -0.6402,-0.09092 V 79.0972 c 0,-0.627398 0.0422,-1.140727 0.0938,-1.140727 0.0516,0 0.32877,0.149232 0.6159,0.331626 0.63896,0.405875 1.24457,0.24986 1.59735,-0.411503 0.37336,-0.699962 0.10298,-1.416446 -0.83308,-2.207552 -1.14178,-0.964964 -1.47401,-1.583781 -1.47401,-2.745534 0,-1.198625 0.42396,-1.959575 1.28661,-2.309291 0.88332,-0.358097 1.93191,-0.0887 2.05807,0.52874 0.17158,0.839721 0.0164,1.26051 -0.44778,1.214634 -1.47281,-0.145547 -1.57189,0.617295 -0.24054,1.852028 0.52204,0.484154 1.07221,1.17138 1.22261,1.527167 0.56927,1.346732 0.20257,3.226452 -0.80602,4.131718 -0.46695,0.41911 -1.43427,0.602156 -2.43275,0.460348 z m 41.82622,-0.01447 c -0.4319,-0.07267 -0.46948,-0.15343 -0.46948,-1.008749 0,-0.919732 0.006,-0.929751 0.58744,-0.929751 0.32309,0 0.64959,-0.117961 0.72556,-0.262134 0.076,-0.144173 0.17652,-1.86639 0.22347,-3.827149 l 0.0854,-3.565015 h 0.76824 0.76823 v 3.901125 c 0,4.127898 -0.0902,4.696889 -0.83916,5.290915 -0.42804,0.339515 -1.20858,0.508629 -1.84966,0.400758 z m -132.303572,-3.878286 -0.04653,-3.827149 -0.734871,-0.06504 -0.734871,-0.06504 0.05199,-0.878636 0.05199,-0.878638 2.347389,-0.05835 2.34739,-0.05834 v 0.949598 c 0,0.934489 -0.009,0.949599 -0.563373,0.949599 -0.936264,0 -0.9731,0.156384 -0.9731,4.131223 v 3.627928 h -0.849745 -0.849745 z m 13.906563,-0.943681 0.04588,-4.770829 0.810917,-0.06392 0.810916,-0.06392 v 1.647203 c 0,1.001549 0.0803,1.74584 0.204863,1.898851 0.112675,0.138406 0.51984,0.251648 0.904812,0.251648 0.384972,0 0.792138,-0.113242 0.904812,-0.251648 0.124564,-0.153011 0.204863,-0.897302 0.204863,-1.898851 v -1.647203 l 0.810917,0.06392 0.810916,0.06392 0.04588,4.770829 0.04589,4.77083 h -0.850154 -0.850155 l -0.04933,-1.834935 -0.04933,-1.834934 h -1.024316 -1.024315 l -0.04933,1.834934 -0.04933,1.834935 H 31.56061 30.710455 Z m 16.389034,0.0063 0.0459,-4.777121 h 2.133991 2.13399 l 0.0525,0.891254 c 0.05808,0.986091 0.124054,0.942208 -1.345659,0.895095 -1.085312,-0.03479 -1.409678,0.256872 -1.322642,1.189292 0.05056,0.541653 0.12413,0.597863 0.908612,0.694228 l 0.853596,0.104853 v 0.943681 0.94368 l -0.853596,0.104854 c -0.784482,0.09636 -0.85805,0.152574 -0.908612,0.694228 -0.08704,0.932419 0.23733,1.224083 1.322642,1.189291 1.469713,-0.04711 1.403741,-0.091 1.345659,0.895095 l -0.0525,0.891254 -2.179888,0.05872 -2.179889,0.05872 0.0459,-4.777124 z m 27.275619,-0.07021 v -4.834746 l 0.810916,0.06392 0.810916,0.06392 0.08536,3.774722 0.08536,3.774722 1.237714,0.06161 1.237715,0.06161 v 0.934493 0.934494 h -2.133991 -2.13399 z m 14.511136,4.659875 c 0,-0.447982 3.435901,-9.157081 3.612638,-9.157081 0.148676,0 3.72829,8.899373 3.72829,9.269002 0,0.03462 -0.445055,0.06295 -0.989011,0.06295 -0.968489,0 -0.992401,-0.01413 -1.152355,-0.681547 L 93.968348,78.90018 H 92.6212 c -1.386201,0 -1.469807,0.04876 -1.708123,0.996107 -0.07336,0.291612 -0.286268,0.366987 -1.036634,0.366987 -0.519372,0 -0.944313,-0.07869 -0.944313,-0.174871 z m 4.267981,-3.505412 c 0,-0.453069 -0.486338,-1.562387 -0.68497,-1.562387 -0.210126,0 -0.709064,1.451792 -0.584215,1.699932 0.05187,0.103087 0.358651,0.187429 0.681744,0.187429 0.416724,0 0.587441,-0.09444 0.587441,-0.324974 z m 29.324879,-0.146866 -0.0465,-3.827149 -0.73487,-0.06504 -0.73487,-0.06504 0.052,-0.878636 0.052,-0.878638 2.34293,-0.05831 2.34294,-0.05831 0.10493,0.513564 c 0.18977,0.928764 0.0335,1.275218 -0.60889,1.350268 -1.01413,0.118474 -1.02361,0.156911 -1.02361,4.150252 v 3.644193 h -0.84974 -0.84975 z m 40.23435,3.559829 c -0.0459,-0.147025 -0.0627,-2.293898 -0.0373,-4.770829 l 0.0462,-4.50351 h 2.13399 2.13399 v 0.929911 0.929911 l -1.04368,-0.05232 c -1.34617,-0.06749 -1.84042,0.437253 -1.49885,1.530656 0.075,0.23994 0.33473,0.331712 0.93896,0.331712 h 0.83533 v 1.048534 1.048534 h -0.83533 c -0.60423,0 -0.864,0.09177 -0.93896,0.331712 -0.3417,1.09382 0.15273,1.59842 1.49885,1.529685 l 1.04368,-0.05329 0.052,0.983309 0.052,0.983309 h -2.1487 c -1.5837,0 -2.17066,-0.07029 -2.23221,-0.26732 z m 14.9468,-4.457664 c 0,-5.46845 -0.17267,-5.026382 1.96327,-5.026382 1.17472,0 1.4749,0.07881 2.14598,0.563434 2.72811,1.970105 2.58989,7.061115 -0.23556,8.677055 -0.72313,0.413575 -1.16084,0.507157 -2.3799,0.508828 l -1.49379,0.0021 v -4.724983 z m 3.26362,2.265509 c 0.27471,-0.199322 0.65589,-0.759363 0.84709,-1.244536 0.47885,-1.215086 0.31124,-2.229427 -0.54249,-3.282818 -0.53285,-0.657479 -0.74941,-0.788596 -1.21221,-0.733973 l -0.56346,0.0665 -0.0476,2.778615 -0.0477,2.778615 h 0.53347 c 0.2934,0 0.7582,-0.163083 1.03288,-0.362407 z m 13.33562,-2.311355 0.0459,-4.770829 0.81091,-0.06392 0.81092,-0.06392 v 4.834746 4.834746 h -0.85681 -0.85678 z M 128.83532,63.540066 c -1.37522,-0.05659 -1.70018,-0.133969 -1.85686,-0.442152 -0.10446,-0.205459 -0.43018,-1.358032 -0.72383,-2.561279 l -0.53391,-2.18772 -6.97896,-0.0548 c -4.91597,-0.0386 -7.04634,0.01388 -7.20689,0.177559 -0.12536,0.127799 -0.42871,1.048957 -0.67412,2.047017 -0.74555,3.032173 -0.21163,2.758336 -5.37815,2.758336 -4.03697,0 -4.45032,-0.03266 -4.55249,-0.359708 -0.0653,-0.209147 0.29415,-1.811063 0.85885,-3.827149 6.47001,-23.099267 9.17569,-32.607683 9.33411,-32.802362 0.13181,-0.161965 2.3786,-0.256149 7.31716,-0.306728 6.10155,-0.06249 7.1568,-0.02879 7.3345,0.234213 0.22486,0.332822 0.83396,2.464724 6.62614,23.192321 2.99374,10.713274 3.7874,13.770564 3.63379,13.997928 -0.19655,0.290905 -2.39897,0.332058 -7.19934,0.134527 z m -6.13762,-14.7004 c 0.16813,-0.131048 -0.22304,-1.755413 -1.67837,-6.969538 -1.04368,-3.739267 -1.93956,-6.967669 -1.99084,-7.174228 -0.0513,-0.206559 -0.17949,-0.341623 -0.28491,-0.300141 -0.34505,0.135781 -4.47158,14.048461 -4.27983,14.429561 0.11954,0.237604 7.93004,0.251212 8.23395,0.01434 z M 27.842589,63.017768 c -0.21084,-0.25899 -0.297687,-9.874816 -0.09504,-10.523491 0.0932,-0.298327 1.370063,-0.331713 12.686644,-0.331713 h 12.58302 l 0.447876,-0.576693 c 1.196567,-1.540716 0.955012,-2.418827 -1.658498,-6.02907 -3.426779,-4.733676 -4.191535,-6.287127 -4.318143,-8.771458 -0.208573,-4.092665 1.81508,-8.178582 4.995127,-10.085555 l 1.365754,-0.818999 23.986055,-0.146491 c 15.658624,-0.09563 24.060146,-0.07484 24.199456,0.05989 0.15958,0.15434 0.21339,1.414298 0.21339,4.996582 0,4.521306 -0.0185,4.802386 -0.3302,5.007287 -0.21225,0.139532 -2.834749,0.217084 -7.340937,0.217084 h -7.010712 v 13.379293 c 0,10.126508 -0.04981,13.440475 -0.204863,13.630941 -0.148507,0.182422 -1.389208,0.251648 -4.510097,0.251648 -2.36788,0 -4.426754,-0.05728 -4.575276,-0.12729 -0.242336,-0.114229 -0.270042,-1.499326 -0.270042,-13.500409 0,-10.458899 -0.0465,-13.413896 -0.213399,-13.560234 -0.122252,-0.107196 -3.826099,-0.140554 -8.671691,-0.07811 -9.757925,0.125759 -9.38187,0.05139 -9.38187,1.855294 0,1.228995 0.330299,1.90561 2.986457,6.11772 2.388912,3.788313 3.637377,6.04256 3.849343,6.950433 0.438471,1.878004 0.05526,5.220181 -0.810233,7.066461 -0.657684,1.40298 -2.529737,3.59532 -3.721803,4.358558 l -1.02337,0.655229 -16.489137,0.123563 c -12.427578,0.09313 -16.538074,0.06345 -16.687806,-0.120476 z m 115.420001,0.08568 c -0.16986,-0.13247 -0.20528,-3.994028 -0.17072,-18.608265 l 0.0436,-18.441109 4.95086,-0.06009 c 7.63017,-0.0926 18.03979,0.277796 19.28183,0.686089 2.35279,0.773422 4.67142,3.189632 5.82808,6.073354 0.63686,1.58779 0.67125,1.777206 0.7291,4.015509 0.0334,1.292012 -0.0264,2.848257 -0.13295,3.458323 -0.50391,2.886197 -2.12399,5.406545 -4.73537,7.366739 -0.79387,0.595905 -1.48625,1.168652 -1.53864,1.272774 -0.14859,0.295321 1.30702,1.998162 2.12263,2.483161 0.69043,0.41056 1.17502,0.448479 8.19796,0.641482 4.10529,0.112823 7.63701,0.246467 7.84827,0.296987 0.37224,0.08902 0.38462,0.17118 0.40031,2.656771 0.009,1.410702 0.0665,3.728048 0.12804,5.149654 0.0615,1.421609 0.05,2.719963 -0.0255,2.885232 -0.11792,0.258003 -1.5783,0.281224 -10.32852,0.164226 -10.16014,-0.135848 -10.19356,-0.137719 -10.97004,-0.614456 -1.29079,-0.792509 -3.5353,-3.134567 -8.37331,-8.737208 -1.37176,-1.588565 -2.56999,-2.888298 -2.66274,-2.888298 -0.2177,0 -0.38976,3.70694 -0.39075,8.418261 -6.8e-4,3.179761 -0.0387,3.717754 -0.27082,3.827149 -0.40416,0.190513 -9.68318,0.147263 -9.93137,-0.04629 z m 19.8921,-21.364374 c 0.96189,-0.587955 1.29998,-1.321746 1.37662,-2.987877 0.0551,-1.198317 0.002,-1.584828 -0.30958,-2.266532 -0.50068,-1.094292 -1.0263,-1.437324 -2.61942,-1.709511 -1.40757,-0.240483 -7.57843,-0.317756 -8.03898,-0.100666 -0.23097,0.108872 -0.26966,0.617149 -0.26743,3.512589 0.001,1.861913 0.0591,3.493745 0.12804,3.62629 0.21833,0.419491 0.87995,0.469965 5.04699,0.385028 3.48061,-0.07094 4.15687,-0.137264 4.68376,-0.459321 z"
         id="path3711"
         inkscape:connector-curvature="0" />
      <path
         style="fill:#020000;stroke-width:0.18921149"
         d="m 57.745197,123.83447 c -0.09024,-0.14671 -1.072358,-3.52244 -2.182483,-7.50163 -2.248177,-8.05847 -3.403968,-11.91191 -3.67134,-12.24034 -0.124161,-0.15251 -0.249604,-0.12624 -0.412174,0.0863 -0.128533,0.16806 -1.217254,3.60845 -2.419381,7.6453 -1.202126,4.03686 -2.498968,8.37779 -2.881869,9.64652 l -0.696184,2.30677 -3.071789,-0.0788 c -1.825076,-0.0469 -3.116678,-0.16547 -3.182393,-0.29228 -0.06083,-0.11739 -2.31791,-8.19756 -5.01573,-17.95593 -2.69782,-9.758379 -4.941771,-17.860465 -4.986559,-18.004639 -0.06383,-0.205466 0.85909,-0.262133 4.26927,-0.262133 3.273359,0 4.394063,0.06491 4.525808,0.262133 0.09631,0.144174 0.995311,3.08882 1.997786,6.543655 1.903451,6.559884 2.202381,7.454274 2.491431,7.454274 0.23937,0 0.447986,-0.64621 2.538728,-7.864005 l 1.822343,-6.291204 h 4.909023 4.909025 l 1.502069,5.452376 c 2.096709,7.610873 2.468868,8.797163 2.78322,8.871753 0.314561,0.0746 0.288437,0.15544 2.603793,-8.054162 l 1.662012,-5.893025 2.157845,-0.135194 c 2.92804,-0.183447 6.646556,-0.172184 6.729499,0.02038 0.03726,0.0865 -2.214031,8.320117 -5.002865,18.296921 l -5.070608,18.13964 -3.0722,0.057 c -2.330816,0.0433 -3.111797,-0.007 -3.236277,-0.20971 z m 59.066923,-0.005 c -0.076,-0.14417 -0.16474,-8.40138 -0.19729,-18.34934 l -0.0592,-18.087214 7.91226,0.0029 c 9.01429,0.0033 13.94254,0.242372 15.33855,0.744247 1.51737,0.545508 3.06848,1.728825 4.35853,3.325048 2.83162,3.503674 3.57003,7.874724 1.99695,11.821039 -0.58871,1.4769 -2.44769,3.92067 -3.70292,4.86779 -2.12831,1.60589 -2.17657,1.76202 -0.98805,3.19624 1.39678,1.68553 1.40122,1.68654 7.89576,1.783 7.31265,0.10861 14.44402,-0.17137 14.98101,-0.58816 0.21148,-0.16414 0.46495,-0.5978 0.56325,-0.96368 0.25072,-0.93318 -0.0531,-1.69086 -1.5428,-3.84682 -2.33751,-3.38308 -4.04962,-6.09079 -4.54336,-7.18534 -0.47539,-1.05386 -0.49534,-1.207858 -0.49534,-3.824267 v -2.726188 l 0.65776,-1.511982 c 0.88007,-2.023033 2.06457,-3.436706 3.74547,-4.470158 l 1.36043,-0.836415 10.86107,0.05397 10.86107,0.05397 v 4.823256 4.823256 l -6.74341,0.143823 c -3.70887,0.0791 -7.15305,0.204821 -7.65372,0.279378 -0.99074,0.147531 -1.56512,0.654847 -1.56512,1.382379 0,0.754221 0.97388,2.735918 2.57276,5.235188 2.94129,4.59763 3.75618,5.96854 4.19027,7.04924 0.40527,1.00901 0.43288,1.26121 0.37946,3.46613 -0.0528,2.17753 -0.10373,2.4928 -0.60452,3.74096 -1.21764,3.03477 -3.29612,4.99526 -5.76973,5.4422 -1.79397,0.32414 -14.65063,0.47182 -23.73212,0.2726 l -8.02594,-0.17606 -0.79001,-0.56871 c -1.16022,-0.83521 -2.70617,-2.43974 -6.7357,-6.99091 -4.41069,-4.98168 -4.46917,-5.04 -4.73129,-4.71837 -0.14271,0.1751 -0.21757,2.04299 -0.25743,6.42304 l -0.0562,6.17614 h -4.67117 c -3.54947,0 -4.70435,-0.063 -4.8093,-0.26213 z m 17.64702,-20.3006 c 2.59937,-0.4305 3.64013,-1.63022 3.64013,-4.196092 0,-1.993248 -1.07323,-3.397915 -2.79848,-3.662697 -0.49683,-0.07625 -2.66322,-0.153224 -4.8142,-0.171047 l -3.91087,-0.03241 -0.0467,3.759247 c -0.0307,2.466349 0.0161,3.836699 0.13605,3.984429 0.38017,0.46835 5.60124,0.68175 7.79411,0.31857 z m -56.738015,20.15831 c -1.893803,-0.0659 -3.507028,-0.1984 -3.584942,-0.2944 -0.07792,-0.096 0.523681,-2.54958 1.336883,-5.45238 0.813201,-2.9028 3.090772,-11.03427 5.061266,-18.069932 l 3.582719,-12.792114 6.794961,-0.18304 c 3.869999,-0.104248 6.974588,-0.104248 7.212253,0 0.374174,0.164127 0.784802,1.483174 3.973955,12.765447 5.31525,18.803749 6.69518,23.800579 6.60382,23.912799 -0.13194,0.16207 -7.8827,0.38697 -8.35182,0.24234 -0.370484,-0.11422 -0.496642,-0.42408 -0.994763,-2.44326 -0.313758,-1.27185 -0.666838,-2.4107 -0.784622,-2.53077 -0.288046,-0.29366 -10.403184,-0.6615 -12.71004,-0.46222 l -1.790941,0.15472 -0.28964,1.04854 c -0.159302,0.57669 -0.467322,1.75629 -0.684489,2.62133 l -0.394848,1.5728 -0.768236,0.015 c -0.422531,0.008 -2.317712,-0.0389 -4.211516,-0.10486 z m 17.88948,-14.20043 c 0.201729,-0.29858 -0.03095,-1.30321 -1.736076,-7.49583 -1.375972,-4.997195 -2.049526,-7.170076 -2.236291,-7.214259 -0.178495,-0.04223 -0.38363,0.270813 -0.617621,0.942491 -0.495712,1.422964 -3.549504,11.523038 -3.802478,12.576268 -0.380632,1.58473 -0.509668,1.53612 4.077799,1.53612 3.578975,0 4.110409,-0.0425 4.314667,-0.34479 z M 17.059326,76.507987 c 0,-3.567198 -0.01921,-3.792029 -0.342097,-4.004296 -0.188152,-0.123694 -0.553065,-0.197789 -0.810916,-0.16466 -0.431322,0.05542 -0.46882,0.0015 -0.46882,-0.673735 v -0.733974 l 2.357986,-0.05843 2.357987,-0.05843 -0.05328,0.792404 c -0.05109,0.759921 -0.08118,0.795191 -0.733938,0.860452 -0.374364,0.03743 -0.740627,0.178979 -0.813918,0.31456 -0.07329,0.13558 -0.12124,1.850768 -0.106554,3.811526 l 0.0267,3.565015 -0.706578,0.06448 -0.706577,0.06449 z m 13.942072,3.615481 c -0.0626,-0.07689 -0.113813,-2.200172 -0.113813,-4.718402 v -4.578598 h 0.761333 0.761332 l 0.04958,1.730081 0.04958,1.730081 1.066995,0.06243 1.066995,0.06243 v -1.792513 -1.792515 h 0.771503 0.771502 l -0.04595,4.665976 -0.04595,4.665976 h -0.682877 -0.682877 l -0.08536,-1.887361 -0.08536,-1.887361 H 33.533715 32.5094 l -0.05019,1.775831 c -0.03095,1.095321 -0.129084,1.837428 -0.256078,1.936575 -0.254598,0.198773 -1.047517,0.216826 -1.201755,0.02736 z m 16.394323,0.0065 c -0.0655,-0.08046 -0.119088,-2.206652 -0.119088,-4.724882 v -4.578598 h 2.048631 2.048631 v 0.838828 0.838827 h -1.160891 c -1.239915,0 -1.570617,0.204374 -1.570617,0.970642 0,0.704265 0.452443,1.126426 1.207229,1.126426 0.668651,0 0.670683,0.0025 0.670683,0.838827 0,0.836285 -0.002,0.838827 -0.670683,0.838827 -0.754786,0 -1.207229,0.422161 -1.207229,1.126425 0,0.767749 0.330359,0.970643 1.580433,0.970643 h 1.170708 l -0.0525,0.891253 -0.0525,0.891254 -1.886862,0.05891 c -1.037775,0.0324 -1.940453,-0.0069 -2.005952,-0.08738 z m 27.139086,-0.0065 c -0.0626,-0.07689 -0.113813,-2.200172 -0.113813,-4.718402 v -4.578598 h 0.768236 0.768237 v 3.644193 c 0,2.945556 0.04797,3.693093 0.250225,3.899283 0.157116,0.160174 0.649433,0.228252 1.323074,0.182959 1.065336,-0.07163 1.073235,-0.06801 1.127865,0.517238 0.09785,1.048248 -0.167049,1.193133 -2.181457,1.193133 -1.005706,0 -1.879771,-0.06291 -1.942367,-0.139806 z m 14.656241,-0.06426 c -0.134471,-0.267267 3.16311,-9.054856 3.366606,-8.971533 0.08581,0.03514 0.913042,2.041802 1.838281,4.459253 1.181681,3.087484 1.622345,4.442167 1.480928,4.552644 -0.110727,0.0865 -0.454919,0.158723 -0.764872,0.160489 -0.483168,0.0027 -0.598979,-0.100953 -0.811958,-0.727089 -0.28946,-0.850988 -0.618463,-0.996787 -2.045992,-0.906697 -0.987459,0.06232 -1.026348,0.08719 -1.33002,0.850596 -0.281025,0.706471 -0.379772,0.786401 -0.97156,0.786401 -0.362307,0 -0.704944,-0.09183 -0.761413,-0.204064 z m 4.096922,-3.156213 c 0.159522,-0.317056 -0.437946,-2.0921 -0.704186,-2.0921 -0.293234,0 -0.749427,1.078713 -0.749427,1.772094 0,0.482655 0.06547,0.534681 0.672801,0.534681 0.370041,0 0.721407,-0.0966 0.780812,-0.214675 z m 13.91112,3.18363 c -0.36179,-0.132935 -0.4268,-0.283156 -0.4268,-0.986194 0,-0.636498 0.0596,-0.808923 0.25608,-0.74144 1.37608,0.472531 2.21935,0.06458 2.21935,-1.073648 0,-0.627958 -0.28601,-1.052392 -1.43281,-2.126261 -1.22335,-1.145546 -1.44746,-2.854988 -0.51532,-3.930673 0.36343,-0.419401 0.61364,-0.504198 1.49118,-0.505378 1.03142,-0.0015 1.05568,0.01157 1.10988,0.59299 0.0872,0.935866 -0.0692,1.249904 -0.48613,0.975818 -0.86791,-0.570566 -1.55985,0.59806 -0.80134,1.353382 0.23844,0.237434 0.74526,0.741268 1.12626,1.119625 1.23504,1.226485 1.35967,3.175992 0.29433,4.603963 -0.49058,0.657563 -0.67233,0.757046 -1.48348,0.812006 -0.50842,0.03445 -1.11646,-0.0079 -1.3512,-0.09419 z m 15.65739,0.04682 c -0.0671,-0.08238 -0.12194,-1.782179 -0.12194,-3.777325 0,-3.436203 -0.0184,-3.639612 -0.34814,-3.856411 -0.19148,-0.125879 -0.51798,-0.199977 -0.72556,-0.164658 -0.32423,0.05516 -0.38488,-0.0466 -0.4304,-0.722188 l -0.053,-0.786401 h 2.32532 2.32532 l -0.053,0.786401 c -0.0503,0.746212 -0.0879,0.791758 -0.73586,0.891254 l -0.68288,0.104853 -0.0854,3.774722 -0.0854,3.774722 -0.60361,0.06241 c -0.33199,0.03432 -0.6585,-0.005 -0.72556,-0.08738 z m 25.9412,-0.01 c -0.0626,-0.07689 -0.11381,-0.454363 -0.11381,-0.838827 0,-0.626316 0.0499,-0.699022 0.47953,-0.699022 0.26374,0 0.62865,-0.133757 0.81091,-0.297238 0.30167,-0.270578 0.33623,-0.618551 0.38531,-3.879576 l 0.0539,-3.582337 h 0.67164 0.67163 v 3.785137 c 0,4.182884 -0.10946,4.75598 -1.01872,5.333558 -0.50728,0.322234 -1.73165,0.434741 -1.94041,0.178305 z m 14.17497,0.0065 c -0.0655,-0.08046 -0.11908,-2.209556 -0.11908,-4.731337 v -4.585052 l 2.09131,0.05888 2.09131,0.05888 v 0.733974 0.733973 l -1.2804,0.104854 -1.28039,0.104853 -0.0522,0.884317 c -0.0564,0.955483 0.009,1.016241 1.24725,1.155247 0.4626,0.05194 0.51216,0.128534 0.51216,0.791478 0,0.662944 -0.0496,0.739539 -0.51216,0.791477 -1.23808,0.139006 -1.30367,0.199765 -1.24725,1.155248 l 0.0522,0.884316 1.24715,0.06185 1.24716,0.06185 -0.0521,0.881834 -0.0521,0.881831 -1.88687,0.05891 c -1.03777,0.0324 -1.94045,-0.0069 -2.00595,-0.08738 z m 31.57779,-0.0065 c -0.0626,-0.07689 -0.11381,-2.205599 -0.11381,-4.730458 v -4.590658 l 0.69165,0.06449 0.69163,0.06448 0.0339,4.558897 c 0.027,3.632453 -0.0123,4.580657 -0.19346,4.665976 -0.32261,0.151937 -0.97527,0.132694 -1.10994,-0.03273 z m -16.67358,-4.673949 v -4.604045 l 0.60105,-0.138509 c 0.33058,-0.07618 1.09723,-0.0997 1.70368,-0.05226 1.44804,0.11326 2.36852,0.862037 3.03025,2.465017 0.75133,1.820045 0.58567,3.849539 -0.43887,5.376332 -0.77705,1.157982 -1.63034,1.54745 -3.40232,1.552913 l -1.49379,0.0046 z m 2.86803,2.631758 c 0.88021,-0.56257 1.28142,-1.298847 1.35263,-2.482367 0.051,-0.848222 -0.0143,-1.260241 -0.28306,-1.786037 -0.39332,-0.769408 -1.28536,-1.516494 -1.81215,-1.517673 -0.66363,-0.0015 -0.7597,0.382942 -0.7597,3.039964 0,2.626244 0.0989,3.040749 0.72551,3.040749 0.17367,0 0.52322,-0.132585 0.77677,-0.294636 z M 127.30506,63.014891 c -0.15118,-0.144174 -0.51059,-1.241884 -0.79869,-2.439354 -0.2881,-1.197472 -0.61546,-2.31286 -0.72747,-2.478644 -0.17406,-0.257618 -1.23494,-0.280072 -7.30042,-0.154505 -3.90322,0.0808 -7.13248,0.186278 -7.17612,0.234389 -0.0436,0.04811 -0.35095,1.097387 -0.68291,2.331725 l -0.60356,2.244255 -4.48135,0.05591 c -2.46474,0.03075 -4.48134,0.01992 -4.48134,-0.02407 0,-0.401031 10.03887,-36.043985 10.20272,-36.22471 0.0692,-0.07631 3.28914,-0.19214 7.15546,-0.257409 5.73344,-0.09679 7.06445,-0.06721 7.21825,0.16044 0.10372,0.153512 0.48529,1.351108 0.84793,2.66132 0.36264,1.310214 2.62653,9.399748 5.03086,17.976739 2.40433,8.576993 4.3715,15.725373 4.3715,15.885289 0,0.404178 -8.15251,0.431394 -8.57486,0.02862 z m -4.35019,-14.627049 c -0.045,-0.924228 -3.73522,-14.048941 -4.06465,-14.4565 -0.21129,-0.261399 -0.30134,-0.140732 -0.6801,0.911304 -0.79669,2.212851 -4.01154,13.320607 -4.01154,13.860417 v 0.530686 l 4.39602,-0.05597 4.39602,-0.05597 z m -94.929815,9.279526 0.04566,-5.190243 12.53805,-0.0538 12.538051,-0.0538 0.410154,-0.470468 c 0.522584,-0.599433 0.889869,-1.464809 0.889869,-2.096653 0,-0.725246 -0.762386,-2.059765 -2.72494,-4.769873 -2.410428,-3.328577 -3.357341,-5.025162 -3.796943,-6.802976 -0.330787,-1.337756 -0.346488,-1.627742 -0.169079,-3.122922 0.422754,-3.562908 2.210036,-6.583112 4.821329,-8.147224 l 1.285574,-0.770033 24.022006,-0.152585 24.022004,-0.152585 v 4.853484 4.853483 l -7.212887,0.0547 -7.212889,0.0547 -0.08536,13.526087 -0.08536,13.526088 -4.56674,0.05585 -4.56674,0.05585 V 49.465479 c 0,-11.791879 -0.03144,-13.431033 -0.262131,-13.666213 -0.208921,-0.212987 -1.918433,-0.236633 -8.421594,-0.116484 -4.487704,0.08291 -8.460604,0.234138 -8.828668,0.336057 -1.152634,0.319176 -1.521385,1.342063 -1.06467,2.953332 0.11113,0.392062 1.376575,2.617839 2.812098,4.94617 3.182606,5.161995 3.762849,6.259074 4.012189,7.585973 0.273988,1.458051 -0.04833,4.36857 -0.651481,5.88291 -0.638012,1.601856 -2.595389,3.971792 -3.969378,4.806006 l -1.094263,0.664381 H 44.344156 27.979393 Z m 115.309605,5.050437 c -0.0626,-0.07689 -0.11381,-8.289875 -0.11381,-18.251071 0,-16.121335 0.0289,-18.124896 0.26314,-18.235303 0.14472,-0.06822 5.23429,-0.02135 11.31015,0.104164 12.11874,0.250333 12.57344,0.298905 14.34331,1.532128 0.53443,0.372381 1.47991,1.297383 2.10107,2.055559 1.75178,2.138178 2.54108,4.445033 2.54108,7.426761 0,4.436198 -1.44102,7.395509 -4.90818,10.079542 -1.02612,0.794353 -1.57915,1.353003 -1.57915,1.595198 0,0.398763 1.48046,2.144166 2.21384,2.610017 0.63189,0.401385 2.31718,0.528006 9.62144,0.722884 3.55169,0.09476 6.51888,0.254769 6.59372,0.355573 0.0749,0.100806 0.1812,2.426662 0.23633,5.168569 l 0.10021,4.985286 -10.27904,-0.05718 -10.27906,-0.05718 -1.19503,-0.982642 c -1.41421,-1.162864 -3.18357,-3.049095 -7.30778,-7.790502 -1.67188,-1.922086 -3.14252,-3.494703 -3.26808,-3.494703 -0.12555,0 -0.27492,0.149269 -0.33191,0.331712 -0.057,0.182441 -0.10362,2.966299 -0.10362,6.18635 v 5.854639 h -4.92241 c -2.70732,0 -4.97362,-0.06291 -5.03622,-0.139806 z m 19.05996,-20.392678 c 0.99405,-0.200788 1.60718,-0.72888 2.04246,-1.75918 0.72729,-1.721508 0.516,-3.698836 -0.53293,-4.987264 -0.87458,-1.074279 -2.00246,-1.271039 -6.85504,-1.195855 l -3.84118,0.05951 -0.0467,3.747282 c -0.0322,2.586039 0.0139,3.837018 0.14894,4.036856 0.15676,0.232017 0.99738,0.287088 4.22932,0.277073 2.21853,-0.0069 4.40334,-0.08717 4.85513,-0.178425 z"
         id="path3709"
         inkscape:connector-curvature="0" />
    </g>
  </g>
</svg>
